M48
; DRILL file {KiCad 7.0.10} date Sat Feb 24 20:23:45 2024
; FORMAT={-:-/ absolute / inch / decimal}
; #@! TF.CreationDate,2024-02-24T20:23:45+01:00
; #@! TF.GenerationSoftware,Kicad,Pcbnew,7.0.10
; #@! TF.FileFunction,Plated,1,4,PTH
FMAT,2
INCH
; #@! TA.AperFunction,Plated,PTH,ViaDrill
T1C0.0098
; #@! TA.AperFunction,Plated,PTH,ViaDrill
T2C0.0157
; #@! TA.AperFunction,Plated,PTH,ComponentDrill
T3C0.0197
; #@! TA.AperFunction,Plated,PTH,ViaDrill
T4C0.0236
; #@! TA.AperFunction,Plated,PTH,ComponentDrill
T5C0.0236
; #@! TA.AperFunction,Plated,PTH,ViaDrill
T6C0.0276
; #@! TA.AperFunction,Plated,PTH,ComponentDrill
T7C0.0866
%
G90
G05
T1
X5.0294Y-2.3903
T2
X6.2323Y-2.3366
T3
X5.7241Y-2.4407
X5.7733Y-2.4407
X5.8225Y-2.4407
X5.8717Y-2.4407
T4
X4.8646Y-2.1142
X4.8803Y-2.4606
X4.9936Y-2.6029
X5.0696Y-2.047
X5.0696Y-2.484
X5.0814Y-2.2084
X5.1126Y-2.1299
X5.1795Y-2.5157
X5.2425Y-2.4291
X5.3291Y-2.4055
X5.4236Y-2.5
X5.4898Y-2.1237
X5.5486Y-2.2152
X5.557Y-2.3899
X5.6129Y-2.5627
X5.6609Y-2.1572
X5.6609Y-2.2202
X5.778Y-2.2795
X5.7782Y-2.1729
X5.7782Y-2.5273
X5.9197Y-2.0827
X5.9197Y-2.2765
X6.0063Y-2.2717
X6.085Y-2.1457
X6.1165Y-2.2717
X6.1693Y-2.3701
X6.2268Y-2.4606
X6.2271Y-2.2674
X6.2346Y-2.1457
X6.2507Y-2.0322
X6.3064Y-2.1329
X6.3144Y-2.5709
X6.3373Y-2.2241
X6.3373Y-2.3029
X6.3373Y-2.3816
X6.3583Y-2.0236
X6.3764Y-2.122
X6.3767Y-2.2635
X6.3767Y-2.3422
X6.4357Y-2.2635
X6.4357Y-2.3422
X6.4394Y-2.5
X6.461Y-2.126
X6.4721Y-2.5854
X6.4751Y-2.2241
X6.4751Y-2.3029
X6.4751Y-2.3816
X6.5232Y-2.0956
X6.5866Y-2.1417
X6.6008Y-2.4277
X6.6063Y-2.2953
X6.6283Y-2.0827
X6.6339Y-2.5984
X6.7047Y-2.2441
X6.7047Y-2.4803
X6.7622Y-2.4055
X6.8173Y-2.3346
X6.9197Y-2.2008
X6.9197Y-2.4449
X6.9669Y-2.2008
X6.9669Y-2.4449
T6
X4.9016Y-2.2674
X5.1087Y-2.5551
X5.1601Y-2.0509
X5.185Y-2.2677
X5.7034Y-2.5233
X6.3898Y-2.5748
X6.5931Y-2.2246
T7
X4.8228Y-1.9882
X4.8228Y-2.6378
X6.8701Y-1.9882
X6.8701Y-2.6378
T5
G00X4.8068Y-2.1485
M15
G01X4.7753Y-2.1485
M16
G05
G00X4.8068Y-2.4887
M15
G01X4.7753Y-2.4887
M16
G05
G00X4.9772Y-2.1485
M15
G01X4.9339Y-2.1485
M16
G05
G00X4.9772Y-2.4887
M15
G01X4.9339Y-2.4887
M16
G05
M30
