%TF.GenerationSoftware,KiCad,Pcbnew,7.0.10*%
%TF.CreationDate,2024-02-24T19:37:40+01:00*%
%TF.ProjectId,STM32,53544d33-322e-46b6-9963-61645f706362,Rev01*%
%TF.SameCoordinates,Original*%
%TF.FileFunction,Copper,L1,Top*%
%TF.FilePolarity,Positive*%
%FSLAX46Y46*%
G04 Gerber Fmt 4.6, Leading zero omitted, Abs format (unit mm)*
G04 Created by KiCad (PCBNEW 7.0.10) date 2024-02-24 19:37:40*
%MOMM*%
%LPD*%
G01*
G04 APERTURE LIST*
G04 Aperture macros list*
%AMRoundRect*
0 Rectangle with rounded corners*
0 $1 Rounding radius*
0 $2 $3 $4 $5 $6 $7 $8 $9 X,Y pos of 4 corners*
0 Add a 4 corners polygon primitive as box body*
4,1,4,$2,$3,$4,$5,$6,$7,$8,$9,$2,$3,0*
0 Add four circle primitives for the rounded corners*
1,1,$1+$1,$2,$3*
1,1,$1+$1,$4,$5*
1,1,$1+$1,$6,$7*
1,1,$1+$1,$8,$9*
0 Add four rect primitives between the rounded corners*
20,1,$1+$1,$2,$3,$4,$5,0*
20,1,$1+$1,$4,$5,$6,$7,0*
20,1,$1+$1,$6,$7,$8,$9,0*
20,1,$1+$1,$8,$9,$2,$3,0*%
G04 Aperture macros list end*
%TA.AperFunction,SMDPad,CuDef*%
%ADD10C,1.000000*%
%TD*%
%TA.AperFunction,ComponentPad*%
%ADD11C,4.400000*%
%TD*%
%TA.AperFunction,SMDPad,CuDef*%
%ADD12R,0.900000X0.800000*%
%TD*%
%TA.AperFunction,SMDPad,CuDef*%
%ADD13RoundRect,0.140000X-0.140000X-0.170000X0.140000X-0.170000X0.140000X0.170000X-0.140000X0.170000X0*%
%TD*%
%TA.AperFunction,SMDPad,CuDef*%
%ADD14RoundRect,0.135000X0.135000X0.185000X-0.135000X0.185000X-0.135000X-0.185000X0.135000X-0.185000X0*%
%TD*%
%TA.AperFunction,SMDPad,CuDef*%
%ADD15RoundRect,0.150000X-0.512500X-0.150000X0.512500X-0.150000X0.512500X0.150000X-0.512500X0.150000X0*%
%TD*%
%TA.AperFunction,SMDPad,CuDef*%
%ADD16RoundRect,0.135000X-0.135000X-0.185000X0.135000X-0.185000X0.135000X0.185000X-0.135000X0.185000X0*%
%TD*%
%TA.AperFunction,SMDPad,CuDef*%
%ADD17RoundRect,0.140000X0.140000X0.170000X-0.140000X0.170000X-0.140000X-0.170000X0.140000X-0.170000X0*%
%TD*%
%TA.AperFunction,ComponentPad*%
%ADD18O,1.800000X1.000000*%
%TD*%
%TA.AperFunction,ComponentPad*%
%ADD19O,2.100000X1.000000*%
%TD*%
%TA.AperFunction,SMDPad,CuDef*%
%ADD20RoundRect,0.150000X-0.425000X0.150000X-0.425000X-0.150000X0.425000X-0.150000X0.425000X0.150000X0*%
%TD*%
%TA.AperFunction,SMDPad,CuDef*%
%ADD21RoundRect,0.075000X-0.500000X0.075000X-0.500000X-0.075000X0.500000X-0.075000X0.500000X0.075000X0*%
%TD*%
%TA.AperFunction,SMDPad,CuDef*%
%ADD22RoundRect,0.218750X0.218750X0.381250X-0.218750X0.381250X-0.218750X-0.381250X0.218750X-0.381250X0*%
%TD*%
%TA.AperFunction,SMDPad,CuDef*%
%ADD23RoundRect,0.225000X-0.225000X-0.250000X0.225000X-0.250000X0.225000X0.250000X-0.225000X0.250000X0*%
%TD*%
%TA.AperFunction,SMDPad,CuDef*%
%ADD24R,1.500000X1.500000*%
%TD*%
%TA.AperFunction,SMDPad,CuDef*%
%ADD25RoundRect,0.147500X-0.147500X-0.172500X0.147500X-0.172500X0.147500X0.172500X-0.147500X0.172500X0*%
%TD*%
%TA.AperFunction,SMDPad,CuDef*%
%ADD26RoundRect,0.225000X0.225000X0.250000X-0.225000X0.250000X-0.225000X-0.250000X0.225000X-0.250000X0*%
%TD*%
%TA.AperFunction,SMDPad,CuDef*%
%ADD27R,1.100000X0.600000*%
%TD*%
%TA.AperFunction,SMDPad,CuDef*%
%ADD28RoundRect,0.147500X-0.172500X0.147500X-0.172500X-0.147500X0.172500X-0.147500X0.172500X0.147500X0*%
%TD*%
%TA.AperFunction,SMDPad,CuDef*%
%ADD29RoundRect,0.250000X-0.275000X-0.250000X0.275000X-0.250000X0.275000X0.250000X-0.275000X0.250000X0*%
%TD*%
%TA.AperFunction,SMDPad,CuDef*%
%ADD30RoundRect,0.250000X-0.850000X-0.275000X0.850000X-0.275000X0.850000X0.275000X-0.850000X0.275000X0*%
%TD*%
%TA.AperFunction,SMDPad,CuDef*%
%ADD31R,5.600000X5.600000*%
%TD*%
%TA.AperFunction,SMDPad,CuDef*%
%ADD32RoundRect,0.062500X-0.062500X-0.375000X0.062500X-0.375000X0.062500X0.375000X-0.062500X0.375000X0*%
%TD*%
%TA.AperFunction,SMDPad,CuDef*%
%ADD33RoundRect,0.062500X-0.375000X-0.062500X0.375000X-0.062500X0.375000X0.062500X-0.375000X0.062500X0*%
%TD*%
%TA.AperFunction,SMDPad,CuDef*%
%ADD34RoundRect,0.061250X-0.061250X0.163750X-0.061250X-0.163750X0.061250X-0.163750X0.061250X0.163750X0*%
%TD*%
%TA.AperFunction,SMDPad,CuDef*%
%ADD35RoundRect,0.068750X-0.281250X0.068750X-0.281250X-0.068750X0.281250X-0.068750X0.281250X0.068750X0*%
%TD*%
%TA.AperFunction,SMDPad,CuDef*%
%ADD36RoundRect,0.060000X-0.060000X0.165000X-0.060000X-0.165000X0.060000X-0.165000X0.060000X0.165000X0*%
%TD*%
%TA.AperFunction,ConnectorPad*%
%ADD37C,0.787400*%
%TD*%
%TA.AperFunction,ComponentPad*%
%ADD38RoundRect,0.200000X-0.200000X-0.450000X0.200000X-0.450000X0.200000X0.450000X-0.200000X0.450000X0*%
%TD*%
%TA.AperFunction,ComponentPad*%
%ADD39O,0.800000X1.300000*%
%TD*%
%TA.AperFunction,ViaPad*%
%ADD40C,0.900000*%
%TD*%
%TA.AperFunction,ViaPad*%
%ADD41C,0.650000*%
%TD*%
%TA.AperFunction,ViaPad*%
%ADD42C,1.000000*%
%TD*%
%TA.AperFunction,Conductor*%
%ADD43C,0.200000*%
%TD*%
%TA.AperFunction,Conductor*%
%ADD44C,0.150000*%
%TD*%
%TA.AperFunction,Conductor*%
%ADD45C,0.500000*%
%TD*%
%TA.AperFunction,Conductor*%
%ADD46C,0.300000*%
%TD*%
%TA.AperFunction,Conductor*%
%ADD47C,0.190000*%
%TD*%
G04 APERTURE END LIST*
D10*
%TO.P,FID1,*%
%TO.N,*%
X126500000Y-49000000D03*
%TD*%
%TO.P,FID2,*%
%TO.N,*%
X170000000Y-49000000D03*
%TD*%
%TO.P,FID3,*%
%TO.N,*%
X170000000Y-68500000D03*
%TD*%
D11*
%TO.P,H4,1,1*%
%TO.N,GND*%
X122500000Y-50500000D03*
%TD*%
%TO.P,H3,1,1*%
%TO.N,GND*%
X122500000Y-67000000D03*
%TD*%
%TO.P,H2,1,1*%
%TO.N,GND*%
X174500000Y-67000000D03*
%TD*%
%TO.P,H1,1,1*%
%TO.N,GND*%
X174500000Y-50500000D03*
%TD*%
D12*
%TO.P,X1,4,4*%
%TO.N,Net-(X1-Pad2)*%
X165660000Y-64550000D03*
%TO.P,X1,3,3*%
%TO.N,/HSE_IN*%
X167060000Y-64550000D03*
%TO.P,X1,2,2*%
%TO.N,Net-(X1-Pad2)*%
X167060000Y-65650000D03*
%TO.P,X1,1,1*%
%TO.N,/HSE_OUT*%
X165660000Y-65650000D03*
%TD*%
D13*
%TO.P,C17,2*%
%TO.N,GND*%
X157840000Y-51600000D03*
%TO.P,C17,1*%
%TO.N,/LSE_OUT*%
X156880000Y-51600000D03*
%TD*%
D14*
%TO.P,R3,2*%
%TO.N,Net-(D1-K)*%
X159375000Y-66300000D03*
%TO.P,R3,1*%
%TO.N,GND*%
X160395000Y-66300000D03*
%TD*%
D15*
%TO.P,U2,6,I/O1*%
%TO.N,/USBC_D-*%
X131167107Y-60150000D03*
%TO.P,U2,5,VBUS*%
%TO.N,+5V*%
X131167107Y-61100000D03*
%TO.P,U2,4,I/O2*%
%TO.N,/USB_D-*%
X131167107Y-62050000D03*
%TO.P,U2,3,I/O2*%
%TO.N,/USB_D+*%
X128892107Y-62050000D03*
%TO.P,U2,2,GND*%
%TO.N,GND*%
X128892107Y-61100000D03*
%TO.P,U2,1,I/O1*%
%TO.N,/USBC_D+*%
X128892107Y-60150000D03*
%TD*%
D13*
%TO.P,C1,2*%
%TO.N,GND*%
X148860000Y-53600000D03*
%TO.P,C1,1*%
%TO.N,+3V3*%
X147900000Y-53600000D03*
%TD*%
D16*
%TO.P,R2,2*%
%TO.N,/UART_RX*%
X157470000Y-61300000D03*
%TO.P,R2,1*%
%TO.N,/UART_RXC*%
X156450000Y-61300000D03*
%TD*%
D17*
%TO.P,C15,2*%
%TO.N,GND*%
X169107500Y-58100000D03*
%TO.P,C15,1*%
%TO.N,/RF*%
X170067500Y-58100000D03*
%TD*%
D16*
%TO.P,R7,2*%
%TO.N,/BOOT*%
X139880000Y-64600000D03*
%TO.P,R7,1*%
%TO.N,GND*%
X138860000Y-64600000D03*
%TD*%
D18*
%TO.P,J3,S1,SHIELD*%
%TO.N,GND*%
X121692107Y-63212893D03*
D19*
X125872107Y-63212893D03*
D18*
X121692107Y-54572893D03*
D19*
X125872107Y-54572893D03*
D20*
%TO.P,J3,B12,GND*%
X126447107Y-55692893D03*
%TO.P,J3,B9,VBUS*%
%TO.N,+5V*%
X126447107Y-56492893D03*
D21*
%TO.P,J3,B8,SBU2*%
%TO.N,unconnected-(J3-SBU2-PadB8)*%
X126447107Y-57142893D03*
%TO.P,J3,B7,D-*%
%TO.N,/USBC_D-*%
X126447107Y-58142893D03*
%TO.P,J3,B6,D+*%
%TO.N,/USBC_D+*%
X126447107Y-59642893D03*
%TO.P,J3,B5,CC2*%
%TO.N,/USBC_CC2*%
X126447107Y-60642893D03*
D20*
%TO.P,J3,B4,VBUS*%
%TO.N,+5V*%
X126447107Y-61292893D03*
%TO.P,J3,B1,GND*%
%TO.N,GND*%
X126447107Y-62092893D03*
%TO.P,J3,A12,GND*%
X126447107Y-62092893D03*
%TO.P,J3,A9,VBUS*%
%TO.N,+5V*%
X126447107Y-61292893D03*
D21*
%TO.P,J3,A8,SBU1*%
%TO.N,unconnected-(J3-SBU1-PadA8)*%
X126447107Y-60142893D03*
%TO.P,J3,A7,D-*%
%TO.N,/USBC_D-*%
X126447107Y-59142893D03*
%TO.P,J3,A6,D+*%
%TO.N,/USBC_D+*%
X126447107Y-58642893D03*
%TO.P,J3,A5,CC1*%
%TO.N,/USBC_CC1*%
X126447107Y-57642893D03*
D20*
%TO.P,J3,A4,VBUS*%
%TO.N,+5V*%
X126447107Y-56492893D03*
%TO.P,J3,A1,GND*%
%TO.N,GND*%
X126447107Y-55692893D03*
%TD*%
D13*
%TO.P,C2,2*%
%TO.N,GND*%
X148840000Y-55100000D03*
%TO.P,C2,1*%
%TO.N,+3V3*%
X147880000Y-55100000D03*
%TD*%
D17*
%TO.P,C16,2*%
%TO.N,GND*%
X169107500Y-61100000D03*
%TO.P,C16,1*%
%TO.N,/RF_MATCH*%
X170067500Y-61100000D03*
%TD*%
D22*
%TO.P,L2,2,2*%
%TO.N,/SMPS_FB*%
X169674607Y-52992893D03*
%TO.P,L2,1,1*%
%TO.N,/SMPSLXL*%
X171799607Y-52992893D03*
%TD*%
D23*
%TO.P,C7,2*%
%TO.N,GND*%
X148735000Y-52092893D03*
%TO.P,C7,1*%
%TO.N,+3V3*%
X147185000Y-52092893D03*
%TD*%
D24*
%TO.P,SW1,2,2*%
%TO.N,+3V3*%
X153860000Y-57700000D03*
%TO.P,SW1,1,1*%
%TO.N,Net-(R6-Pad1)*%
X153860000Y-65500000D03*
%TD*%
D13*
%TO.P,C4,2*%
%TO.N,GND*%
X148880000Y-58100000D03*
%TO.P,C4,1*%
%TO.N,+3V3*%
X147920000Y-58100000D03*
%TD*%
D25*
%TO.P,D1,2,A*%
%TO.N,Net-(D1-A)*%
X160370000Y-64100000D03*
%TO.P,D1,1,K*%
%TO.N,Net-(D1-K)*%
X159400000Y-64100000D03*
%TD*%
D23*
%TO.P,C9,2*%
%TO.N,GND*%
X134635000Y-63100000D03*
%TO.P,C9,1*%
%TO.N,+3V3*%
X133085000Y-63100000D03*
%TD*%
D26*
%TO.P,C14,2*%
%TO.N,GND*%
X162585000Y-51600000D03*
%TO.P,C14,1*%
%TO.N,/SMPS_FB*%
X164135000Y-51600000D03*
%TD*%
D16*
%TO.P,R1,2*%
%TO.N,/UART_TX*%
X157470000Y-63700000D03*
%TO.P,R1,1*%
%TO.N,/UART_TXC*%
X156450000Y-63700000D03*
%TD*%
D17*
%TO.P,C6,2*%
%TO.N,GND*%
X141907107Y-54092893D03*
%TO.P,C6,1*%
%TO.N,+3V3*%
X142867107Y-54092893D03*
%TD*%
D16*
%TO.P,R4,1*%
%TO.N,GND*%
X126350000Y-64900000D03*
%TO.P,R4,2*%
%TO.N,/USBC_CC2*%
X127370000Y-64900000D03*
%TD*%
D27*
%TO.P,X2,2,2*%
%TO.N,/LSE_IN*%
X156360000Y-53900000D03*
%TO.P,X2,1,1*%
%TO.N,/LSE_OUT*%
X156360000Y-55300000D03*
%TD*%
D13*
%TO.P,C5,2*%
%TO.N,GND*%
X148860000Y-59600000D03*
%TO.P,C5,1*%
%TO.N,+3V3*%
X147900000Y-59600000D03*
%TD*%
D17*
%TO.P,C8,2*%
%TO.N,GND*%
X141907107Y-55592893D03*
%TO.P,C8,1*%
%TO.N,+3V3*%
X142867107Y-55592893D03*
%TD*%
D28*
%TO.P,L3,2,2*%
%TO.N,/RF_MATCH*%
X170087500Y-60085000D03*
%TO.P,L3,1,1*%
%TO.N,/RF*%
X170087500Y-59115000D03*
%TD*%
D17*
%TO.P,C18,2*%
%TO.N,GND*%
X151880000Y-52085786D03*
%TO.P,C18,1*%
%TO.N,/LSE_IN*%
X152840000Y-52085786D03*
%TD*%
D29*
%TO.P,J2,1,In*%
%TO.N,/RF_ANT*%
X174810000Y-59100000D03*
D30*
%TO.P,J2,2,Ext*%
%TO.N,GND*%
X176335000Y-57625000D03*
X176335000Y-60575000D03*
%TD*%
D15*
%TO.P,U1,5,VOUT*%
%TO.N,+3V3*%
X130997500Y-53150000D03*
%TO.P,U1,4,NC*%
%TO.N,unconnected-(U1-NC-Pad4)*%
X130997500Y-55050000D03*
%TO.P,U1,3,EN*%
%TO.N,+5V*%
X128722500Y-55050000D03*
%TO.P,U1,2,GND*%
%TO.N,GND*%
X128722500Y-54100000D03*
%TO.P,U1,1,VIN*%
%TO.N,+5V*%
X128722500Y-53150000D03*
%TD*%
D31*
%TO.P,U3,49,VSS*%
%TO.N,GND*%
X162860000Y-58600000D03*
D32*
%TO.P,U3,48,VDD*%
%TO.N,+3V3*%
X160110000Y-55162500D03*
%TO.P,U3,47,PB7*%
%TO.N,unconnected-(U3-PB7-Pad47)*%
X160610000Y-55162500D03*
%TO.P,U3,46,PB6*%
%TO.N,unconnected-(U3-PB6-Pad46)*%
X161110000Y-55162500D03*
%TO.P,U3,45,PB5*%
%TO.N,unconnected-(U3-PB5-Pad45)*%
X161610000Y-55162500D03*
%TO.P,U3,44,PB4*%
%TO.N,unconnected-(U3-PB4-Pad44)*%
X162110000Y-55162500D03*
%TO.P,U3,43,PB3*%
%TO.N,Net-(J4-SWO)*%
X162610000Y-55162500D03*
%TO.P,U3,42,PA15*%
%TO.N,unconnected-(U3-PA15-Pad42)*%
X163110000Y-55162500D03*
%TO.P,U3,41,PA14*%
%TO.N,/SWD_CLK*%
X163610000Y-55162500D03*
%TO.P,U3,40,VDDUSB*%
%TO.N,+3V3*%
X164110000Y-55162500D03*
%TO.P,U3,39,PA13*%
%TO.N,/SWD_DIO*%
X164610000Y-55162500D03*
%TO.P,U3,38,PA12*%
%TO.N,/USB_D+*%
X165110000Y-55162500D03*
%TO.P,U3,37,PA11*%
%TO.N,/USB_D-*%
X165610000Y-55162500D03*
D33*
%TO.P,U3,36,PA10*%
%TO.N,unconnected-(U3-PA10-Pad36)*%
X166297500Y-55850000D03*
%TO.P,U3,35,VDD*%
%TO.N,+3V3*%
X166297500Y-56350000D03*
%TO.P,U3,34,VDDSMPS*%
X166297500Y-56850000D03*
%TO.P,U3,33,VLXSMPS*%
%TO.N,/SMPSLX*%
X166297500Y-57350000D03*
%TO.P,U3,32,VSSSMPS*%
%TO.N,GND*%
X166297500Y-57850000D03*
%TO.P,U3,31,VFBSMPS*%
%TO.N,/SMPS_FB*%
X166297500Y-58350000D03*
%TO.P,U3,30,PE4*%
%TO.N,unconnected-(U3-PE4-Pad30)*%
X166297500Y-58850000D03*
%TO.P,U3,29,PB1*%
%TO.N,unconnected-(U3-PB1-Pad29)*%
X166297500Y-59350000D03*
%TO.P,U3,28,PB0*%
%TO.N,unconnected-(U3-PB0-Pad28)*%
X166297500Y-59850000D03*
%TO.P,U3,27,AT1*%
%TO.N,unconnected-(U3-AT1-Pad27)*%
X166297500Y-60350000D03*
%TO.P,U3,26,AT0*%
%TO.N,unconnected-(U3-AT0-Pad26)*%
X166297500Y-60850000D03*
%TO.P,U3,25,OSC_IN*%
%TO.N,/HSE_IN*%
X166297500Y-61350000D03*
D32*
%TO.P,U3,24,OSC_OUT*%
%TO.N,/HSE_OUT*%
X165610000Y-62037500D03*
%TO.P,U3,23,VDDRF*%
%TO.N,+3V3*%
X165110000Y-62037500D03*
%TO.P,U3,22,VSSRF*%
%TO.N,GND*%
X164610000Y-62037500D03*
%TO.P,U3,21,RF1*%
%TO.N,/RF*%
X164110000Y-62037500D03*
%TO.P,U3,20,VDD*%
%TO.N,+3V3*%
X163610000Y-62037500D03*
%TO.P,U3,19,PB2*%
%TO.N,unconnected-(U3-PB2-Pad19)*%
X163110000Y-62037500D03*
%TO.P,U3,18,PA9*%
%TO.N,unconnected-(U3-PA9-Pad18)*%
X162610000Y-62037500D03*
%TO.P,U3,17,PA8*%
%TO.N,unconnected-(U3-PA8-Pad17)*%
X162110000Y-62037500D03*
%TO.P,U3,16,PA7*%
%TO.N,Net-(D1-A)*%
X161610000Y-62037500D03*
%TO.P,U3,15,PA6*%
%TO.N,unconnected-(U3-PA6-Pad15)*%
X161110000Y-62037500D03*
%TO.P,U3,14,PA5*%
%TO.N,unconnected-(U3-PA5-Pad14)*%
X160610000Y-62037500D03*
%TO.P,U3,13,PA4*%
%TO.N,unconnected-(U3-PA4-Pad13)*%
X160110000Y-62037500D03*
D33*
%TO.P,U3,12,PA3*%
%TO.N,/UART_RX*%
X159422500Y-61350000D03*
%TO.P,U3,11,PA2*%
%TO.N,/UART_TX*%
X159422500Y-60850000D03*
%TO.P,U3,10,PA1*%
%TO.N,unconnected-(U3-PA1-Pad10)*%
X159422500Y-60350000D03*
%TO.P,U3,9,PA0*%
%TO.N,unconnected-(U3-PA0-Pad9)*%
X159422500Y-59850000D03*
%TO.P,U3,8,VDDA*%
%TO.N,+3V3*%
X159422500Y-59350000D03*
%TO.P,U3,7,NRST*%
%TO.N,/SWD_NRST*%
X159422500Y-58850000D03*
%TO.P,U3,6,PB9*%
%TO.N,unconnected-(U3-PB9-Pad6)*%
X159422500Y-58350000D03*
%TO.P,U3,5,PB8*%
%TO.N,unconnected-(U3-PB8-Pad5)*%
X159422500Y-57850000D03*
%TO.P,U3,4,PH3*%
%TO.N,/BOOT*%
X159422500Y-57350000D03*
%TO.P,U3,3,PC15*%
%TO.N,/LSE_OUT*%
X159422500Y-56850000D03*
%TO.P,U3,2,PC14*%
%TO.N,/LSE_IN*%
X159422500Y-56350000D03*
%TO.P,U3,1,VBAT*%
%TO.N,+3V3*%
X159422500Y-55850000D03*
%TD*%
D17*
%TO.P,C12,2*%
%TO.N,GND*%
X141927107Y-57092893D03*
%TO.P,C12,1*%
%TO.N,+3V3*%
X142887107Y-57092893D03*
%TD*%
D13*
%TO.P,C13,1*%
%TO.N,/SWD_NRST*%
X141147107Y-59612893D03*
%TO.P,C13,2*%
%TO.N,GND*%
X142107107Y-59612893D03*
%TD*%
D23*
%TO.P,C10,2*%
%TO.N,GND*%
X134635000Y-66100000D03*
%TO.P,C10,1*%
%TO.N,+5V*%
X133085000Y-66100000D03*
%TD*%
D25*
%TO.P,L1,2,2*%
%TO.N,/SMPSLXL*%
X170447107Y-54442893D03*
%TO.P,L1,1,1*%
%TO.N,/SMPSLX*%
X169477107Y-54442893D03*
%TD*%
D14*
%TO.P,R6,2*%
%TO.N,/BOOT*%
X138850000Y-63100000D03*
%TO.P,R6,1*%
%TO.N,Net-(R6-Pad1)*%
X139870000Y-63100000D03*
%TD*%
D17*
%TO.P,C19,2*%
%TO.N,GND*%
X138890000Y-66100000D03*
%TO.P,C19,1*%
%TO.N,/BOOT*%
X139850000Y-66100000D03*
%TD*%
D34*
%TO.P,FLT1,4,GND*%
%TO.N,GND*%
X171732500Y-59500000D03*
D35*
%TO.P,FLT1,3,OUT*%
%TO.N,/RF_ANT*%
X171960000Y-60112500D03*
D36*
%TO.P,FLT1,2,GND*%
%TO.N,GND*%
X172187500Y-59500000D03*
D35*
%TO.P,FLT1,1,IN*%
%TO.N,/RF_MATCH*%
X171960000Y-58887500D03*
%TD*%
D37*
%TO.P,J4,6,SWO*%
%TO.N,Net-(J4-SWO)*%
X137670000Y-56100000D03*
%TO.P,J4,5,GND*%
%TO.N,GND*%
X137670000Y-57370000D03*
%TO.P,J4,4,SWCLK*%
%TO.N,/SWD_CLK*%
X136400000Y-56100000D03*
%TO.P,J4,3,~{RESET}*%
%TO.N,/SWD_NRST*%
X136400000Y-57370000D03*
%TO.P,J4,2,SWDIO*%
%TO.N,/SWD_DIO*%
X135130000Y-56100000D03*
%TO.P,J4,1,VCC*%
%TO.N,+3V3*%
X135130000Y-57370000D03*
%TD*%
D23*
%TO.P,C11,2*%
%TO.N,GND*%
X134635000Y-64600000D03*
%TO.P,C11,1*%
%TO.N,+3V3*%
X133085000Y-64600000D03*
%TD*%
D38*
%TO.P,J1,1,Pin_1*%
%TO.N,+3V3*%
X145392107Y-61992893D03*
D39*
%TO.P,J1,2,Pin_2*%
%TO.N,/UART_TXC*%
X146642107Y-61992893D03*
%TO.P,J1,3,Pin_3*%
%TO.N,/UART_RXC*%
X147892107Y-61992893D03*
%TO.P,J1,4,Pin_4*%
%TO.N,GND*%
X149142107Y-61992893D03*
%TD*%
D16*
%TO.P,R5,1*%
%TO.N,GND*%
X125850000Y-52900000D03*
%TO.P,R5,2*%
%TO.N,/USBC_CC1*%
X126870000Y-52900000D03*
%TD*%
D13*
%TO.P,C3,2*%
%TO.N,GND*%
X148880000Y-56600000D03*
%TO.P,C3,1*%
%TO.N,+3V3*%
X147920000Y-56600000D03*
%TD*%
D40*
%TO.N,+3V3*%
X158167762Y-59200025D03*
D41*
%TO.N,GND*%
X127746315Y-60713685D03*
D40*
X163467107Y-59492893D03*
X161967107Y-59492893D03*
X163467107Y-57492893D03*
X161967107Y-57492893D03*
X164467107Y-60492893D03*
X164467107Y-58492893D03*
X164467107Y-56492893D03*
X160967107Y-58492893D03*
X160967107Y-60492893D03*
X160967107Y-56492893D03*
X158767107Y-51617893D03*
%TO.N,+3V3*%
X146767107Y-55192893D03*
X159767107Y-54092893D03*
%TO.N,GND*%
X140934214Y-56265786D03*
X150360000Y-57822893D03*
D42*
%TO.N,+3V3*%
X132360000Y-57700000D03*
D40*
X146760000Y-57900000D03*
D42*
X167514007Y-55454007D03*
D40*
X146767107Y-64192893D03*
D42*
X144867107Y-64092893D03*
X162560000Y-64769670D03*
D40*
X164110000Y-54000000D03*
X131560000Y-63900000D03*
X143787107Y-54792893D03*
X155360000Y-57700000D03*
D42*
X131067107Y-52092893D03*
D40*
X152560000Y-57700000D03*
X143787107Y-56392893D03*
%TO.N,GND*%
X176960000Y-55900000D03*
X175760000Y-55900000D03*
X176960000Y-62100000D03*
X123960000Y-62500000D03*
X126837107Y-66112893D03*
X150360000Y-52900000D03*
X160385000Y-65300000D03*
X171760000Y-61100000D03*
X137760000Y-63500000D03*
X173160000Y-59300000D03*
X168560000Y-63100000D03*
X169100000Y-57126250D03*
X129860000Y-54100000D03*
X175760000Y-62100000D03*
X161900000Y-50600000D03*
X123560000Y-53700000D03*
D42*
%TO.N,+5V*%
X129760000Y-64900000D03*
D40*
X129067107Y-56092893D03*
X128767107Y-51992893D03*
D42*
X123467107Y-57592893D03*
D40*
%TO.N,/SWD_NRST*%
X135360000Y-61100000D03*
X141147107Y-60702893D03*
%TO.N,/SMPS_FB*%
X167800000Y-58300000D03*
X168360000Y-52900000D03*
%TO.N,/RF*%
X167660000Y-61663952D03*
X163560000Y-63500000D03*
%TO.N,/LSE_IN*%
X154560000Y-54500000D03*
X158360000Y-54500000D03*
%TO.N,/BOOT*%
X142567107Y-65092893D03*
X158167107Y-57592893D03*
%TO.N,Net-(J4-SWO)*%
X138978642Y-54404428D03*
X161960000Y-53900000D03*
%TO.N,/UART_TX*%
X158351117Y-60563698D03*
X158160000Y-62500000D03*
%TO.N,/USB_D+*%
X128767107Y-63092893D03*
X165689098Y-53228036D03*
%TO.N,/USB_D-*%
X133160000Y-61700000D03*
X166560000Y-53900000D03*
%TO.N,Net-(X1-Pad2)*%
X167067107Y-66700000D03*
X164390331Y-65669669D03*
%TD*%
D43*
%TO.N,/USBC_D-*%
X128350000Y-59150000D02*
X129910000Y-59150000D01*
X127350000Y-58150000D02*
X128350000Y-59150000D01*
X126040000Y-58150000D02*
X127350000Y-58150000D01*
D44*
%TO.N,/SWD_CLK*%
X163610000Y-54740944D02*
X163610000Y-55162500D01*
X163300000Y-54430944D02*
X163610000Y-54740944D01*
X163300000Y-53900000D02*
X163300000Y-54430944D01*
X161274214Y-52900000D02*
X162300000Y-52900000D01*
X162300000Y-52900000D02*
X163300000Y-53900000D01*
X159167107Y-50792893D02*
X161274214Y-52900000D01*
X135512550Y-52347450D02*
X137067107Y-50792893D01*
X135512550Y-55212550D02*
X135512550Y-52347450D01*
X136400000Y-56100000D02*
X135512550Y-55212550D01*
X137067107Y-50792893D02*
X159167107Y-50792893D01*
%TO.N,/SWD_DIO*%
X164610000Y-54674701D02*
X164610000Y-55162500D01*
X164900000Y-54384701D02*
X164610000Y-54674701D01*
X164900000Y-53764695D02*
X164900000Y-54384701D01*
X163635305Y-52500000D02*
X164900000Y-53764695D01*
X161400000Y-52500000D02*
X163635305Y-52500000D01*
X159342893Y-50442893D02*
X161400000Y-52500000D01*
X132200000Y-52500000D02*
X134257107Y-50442893D01*
X134257107Y-50442893D02*
X159342893Y-50442893D01*
X132200000Y-55200000D02*
X132200000Y-52500000D01*
X132800000Y-55800000D02*
X132200000Y-55200000D01*
X134830000Y-55800000D02*
X132800000Y-55800000D01*
X135130000Y-56100000D02*
X134830000Y-55800000D01*
D45*
%TO.N,GND*%
X162585000Y-51285000D02*
X162585000Y-51600000D01*
X161900000Y-50600000D02*
X162585000Y-51285000D01*
D43*
%TO.N,+3V3*%
X164110000Y-54000000D02*
X164110000Y-55162500D01*
D44*
%TO.N,/LSE_OUT*%
X156850000Y-56850000D02*
X159422500Y-56850000D01*
X156360000Y-56360000D02*
X156850000Y-56850000D01*
X156360000Y-55300000D02*
X156360000Y-56360000D01*
%TO.N,/LSE_IN*%
X154200000Y-54500000D02*
X154560000Y-54500000D01*
X153600000Y-53900000D02*
X154200000Y-54500000D01*
X154567107Y-54492893D02*
X154560000Y-54500000D01*
X152840000Y-53140000D02*
X152840000Y-52580000D01*
X154567107Y-53900000D02*
X153600000Y-53900000D01*
X153600000Y-53900000D02*
X152840000Y-53140000D01*
D43*
%TO.N,/SMPS_FB*%
X165900000Y-51600000D02*
X164135000Y-51600000D01*
X167200000Y-52900000D02*
X165900000Y-51600000D01*
X168360000Y-52900000D02*
X167200000Y-52900000D01*
%TO.N,/HSE_IN*%
X166297500Y-62997500D02*
X166297500Y-61350000D01*
X167060000Y-63760000D02*
X166297500Y-62997500D01*
X167060000Y-64550000D02*
X167060000Y-63760000D01*
%TO.N,/RF*%
X168785000Y-59115000D02*
X170087500Y-59115000D01*
X167660000Y-61663952D02*
X167660000Y-60240000D01*
X167660000Y-60240000D02*
X168785000Y-59115000D01*
%TO.N,/SMPSLXL*%
X171257107Y-54442893D02*
X170447107Y-54442893D01*
X171799607Y-53900393D02*
X171257107Y-54442893D01*
X171799607Y-52992893D02*
X171799607Y-53900393D01*
%TO.N,/SMPS_FB*%
X167750000Y-58350000D02*
X166297500Y-58350000D01*
X167800000Y-58300000D02*
X167750000Y-58350000D01*
%TO.N,/SMPSLX*%
X166850000Y-57350000D02*
X166297500Y-57350000D01*
X169477107Y-54722893D02*
X166850000Y-57350000D01*
X169477107Y-54442893D02*
X169477107Y-54722893D01*
D44*
%TO.N,Net-(D1-A)*%
X161610000Y-63690000D02*
X161610000Y-62037500D01*
X161200000Y-64100000D02*
X161610000Y-63690000D01*
X160370000Y-64100000D02*
X161200000Y-64100000D01*
D43*
%TO.N,/UART_TXC*%
X156450000Y-63190000D02*
X156450000Y-63700000D01*
X155852893Y-62592893D02*
X156450000Y-63190000D01*
X153772793Y-62592893D02*
X155852893Y-62592893D01*
X152472793Y-63892893D02*
X153772793Y-62592893D01*
X148067107Y-63892893D02*
X152472793Y-63892893D01*
X146642107Y-62467893D02*
X148067107Y-63892893D01*
X146642107Y-61992893D02*
X146642107Y-62467893D01*
%TO.N,/UART_RXC*%
X155867107Y-62192893D02*
X156450000Y-61610000D01*
X153607107Y-62192893D02*
X155867107Y-62192893D01*
X152307107Y-63492893D02*
X153607107Y-62192893D01*
X147892107Y-62717893D02*
X148667107Y-63492893D01*
X148667107Y-63492893D02*
X152307107Y-63492893D01*
X156450000Y-61610000D02*
X156450000Y-61300000D01*
X147892107Y-61992893D02*
X147892107Y-62717893D01*
D44*
%TO.N,/USB_D-*%
X165610000Y-54850000D02*
X166560000Y-53900000D01*
X165610000Y-55162500D02*
X165610000Y-54850000D01*
D43*
%TO.N,/USB_D+*%
X165689098Y-54125933D02*
X165689098Y-53228036D01*
X165110000Y-55162500D02*
X165110000Y-54705031D01*
X165110000Y-54705031D02*
X165689098Y-54125933D01*
D45*
%TO.N,+5V*%
X128722500Y-55748286D02*
X128722500Y-55050000D01*
X129067107Y-56092893D02*
X128722500Y-55748286D01*
D43*
%TO.N,/BOOT*%
X142074214Y-64600000D02*
X139880000Y-64600000D01*
X142567107Y-65092893D02*
X142074214Y-64600000D01*
D45*
%TO.N,+3V3*%
X144867107Y-64092893D02*
X145392107Y-63567893D01*
X145392107Y-63567893D02*
X145392107Y-61992893D01*
X145392107Y-62817893D02*
X145392107Y-61992893D01*
X146767107Y-64192893D02*
X145392107Y-62817893D01*
D43*
%TO.N,Net-(X1-Pad2)*%
X167067107Y-66700000D02*
X167067107Y-65657107D01*
X167067107Y-65657107D02*
X167060000Y-65650000D01*
D46*
%TO.N,GND*%
X169067107Y-61140393D02*
X169107500Y-61100000D01*
X169067107Y-62592893D02*
X169067107Y-61140393D01*
X168560000Y-63100000D02*
X169067107Y-62592893D01*
X138347107Y-56692893D02*
X137670000Y-57370000D01*
X140507107Y-56692893D02*
X138347107Y-56692893D01*
X140934214Y-56265786D02*
X140507107Y-56692893D01*
D43*
X163610000Y-57850000D02*
X162860000Y-58600000D01*
X166297500Y-57850000D02*
X163610000Y-57850000D01*
%TO.N,Net-(R6-Pad1)*%
X143610000Y-63950000D02*
X142760000Y-63100000D01*
X143892232Y-65492893D02*
X143610000Y-65210661D01*
X143610000Y-65210661D02*
X143610000Y-63950000D01*
X153852893Y-65492893D02*
X143892232Y-65492893D01*
X153860000Y-65500000D02*
X153852893Y-65492893D01*
X142760000Y-63100000D02*
X139870000Y-63100000D01*
D44*
%TO.N,/LSE_OUT*%
X156660000Y-55300000D02*
X156360000Y-55300000D01*
X157467107Y-52187107D02*
X157467107Y-54492893D01*
X157467107Y-54492893D02*
X156660000Y-55300000D01*
X156880000Y-51600000D02*
X157467107Y-52187107D01*
%TO.N,/LSE_IN*%
X156360000Y-53900000D02*
X154567107Y-53900000D01*
%TO.N,/SWD_NRST*%
X141557107Y-60292893D02*
X141147107Y-60702893D01*
X155567107Y-60292893D02*
X141557107Y-60292893D01*
X158499214Y-58425000D02*
X157435000Y-58425000D01*
X159422500Y-58850000D02*
X158924214Y-58850000D01*
X158924214Y-58850000D02*
X158499214Y-58425000D01*
X157435000Y-58425000D02*
X155567107Y-60292893D01*
%TO.N,/BOOT*%
X158167107Y-57592893D02*
X158410000Y-57350000D01*
X158410000Y-57350000D02*
X159422500Y-57350000D01*
%TO.N,/UART_TX*%
X158637419Y-60850000D02*
X159422500Y-60850000D01*
X158351117Y-60563698D02*
X158637419Y-60850000D01*
%TO.N,+3V3*%
X158317737Y-59350000D02*
X159422500Y-59350000D01*
X158167762Y-59200025D02*
X158317737Y-59350000D01*
D45*
%TO.N,GND*%
X149203933Y-62029719D02*
X149167107Y-61992893D01*
D44*
X127746315Y-60713685D02*
X127636313Y-60603683D01*
X128132631Y-61100000D02*
X128275660Y-61100000D01*
X127636313Y-60603683D02*
X127636313Y-60603682D01*
X127746315Y-60713685D02*
X128132631Y-61100000D01*
D43*
%TO.N,/USBC_CC1*%
X126040000Y-57650000D02*
X127310000Y-57650000D01*
X127310000Y-57650000D02*
X127567107Y-57392893D01*
X127567107Y-57392893D02*
X127567107Y-53597107D01*
X127567107Y-53597107D02*
X126870000Y-52900000D01*
D47*
%TO.N,+5V*%
X130360000Y-61100000D02*
X130997500Y-61100000D01*
X130067107Y-61392893D02*
X130360000Y-61100000D01*
X130067107Y-64592893D02*
X130067107Y-61392893D01*
X129760000Y-64900000D02*
X130067107Y-64592893D01*
X125860000Y-56500000D02*
X126040000Y-56500000D01*
X124767107Y-57592893D02*
X125860000Y-56500000D01*
X123467107Y-57592893D02*
X124767107Y-57592893D01*
D43*
%TO.N,/USBC_D+*%
X128392107Y-59650000D02*
X128892107Y-60150000D01*
X126040000Y-59650000D02*
X128392107Y-59650000D01*
%TO.N,/USBC_D-*%
X130910000Y-60150000D02*
X131167107Y-60150000D01*
X129910000Y-59150000D02*
X130910000Y-60150000D01*
D44*
%TO.N,/USB_D+*%
X128767107Y-62175000D02*
X128892107Y-62050000D01*
X128767107Y-63092893D02*
X128767107Y-62175000D01*
%TO.N,/USB_D-*%
X132810000Y-62050000D02*
X131167107Y-62050000D01*
D43*
%TO.N,GND*%
X171067107Y-59993497D02*
X171067107Y-60407107D01*
X171560604Y-59500000D02*
X171067107Y-59993497D01*
X171067107Y-60407107D02*
X171760000Y-61100000D01*
X171732500Y-59500000D02*
X171560604Y-59500000D01*
D44*
%TO.N,/USB_D+*%
X128767107Y-63092893D02*
X128722500Y-63048286D01*
D43*
%TO.N,/LSE_IN*%
X152840000Y-52085786D02*
X152840000Y-52580000D01*
D44*
%TO.N,Net-(J4-SWO)*%
X137670000Y-55713069D02*
X137670000Y-56100000D01*
X138978642Y-54404428D02*
X137670000Y-55713069D01*
D45*
%TO.N,+3V3*%
X143467107Y-57092893D02*
X143787107Y-56772893D01*
X142887107Y-57092893D02*
X143467107Y-57092893D01*
X143787107Y-56772893D02*
X143787107Y-56392893D01*
X143787107Y-55992893D02*
X143787107Y-56392893D01*
%TO.N,GND*%
X140934214Y-57760000D02*
X140934214Y-56265786D01*
X141267107Y-58092893D02*
X140934214Y-57760000D01*
X141867107Y-58092893D02*
X141267107Y-58092893D01*
X142107107Y-59612893D02*
X142107107Y-58332893D01*
X142107107Y-58332893D02*
X141867107Y-58092893D01*
X158967107Y-51592893D02*
X157856321Y-51592893D01*
X151174214Y-52085786D02*
X150360000Y-52900000D01*
X151880000Y-52085786D02*
X151174214Y-52085786D01*
X149552893Y-52092893D02*
X150360000Y-52900000D01*
X148735000Y-52092893D02*
X149552893Y-52092893D01*
%TO.N,+3V3*%
X146760000Y-55185786D02*
X146760000Y-52900000D01*
X146767107Y-55192893D02*
X146760000Y-55185786D01*
X146760000Y-55200000D02*
X146767107Y-55192893D01*
D43*
X160110000Y-54435786D02*
X159767107Y-54092893D01*
X160110000Y-55162500D02*
X160110000Y-54435786D01*
D45*
%TO.N,+5V*%
X128722500Y-52037500D02*
X128722500Y-53150000D01*
X128767107Y-51992893D02*
X128722500Y-52037500D01*
%TO.N,+3V3*%
X130997500Y-52162500D02*
X130997500Y-53150000D01*
X131067107Y-52092893D02*
X130997500Y-52162500D01*
D43*
%TO.N,+5V*%
X127467107Y-63007107D02*
X127467107Y-61892893D01*
X129360000Y-64900000D02*
X127467107Y-63007107D01*
X129760000Y-64900000D02*
X129360000Y-64900000D01*
X127467107Y-61892893D02*
X126874214Y-61300000D01*
X126874214Y-61300000D02*
X126040000Y-61300000D01*
D45*
%TO.N,GND*%
X140934214Y-55945786D02*
X140934214Y-56265786D01*
X141287107Y-55592893D02*
X140934214Y-55945786D01*
X141907107Y-55592893D02*
X141287107Y-55592893D01*
X140934214Y-56725786D02*
X140934214Y-56265786D01*
X141301321Y-57092893D02*
X140934214Y-56725786D01*
X141927107Y-57092893D02*
X141301321Y-57092893D01*
X140934214Y-54345786D02*
X140934214Y-56265786D01*
X141187107Y-54092893D02*
X140934214Y-54345786D01*
X141907107Y-54092893D02*
X141187107Y-54092893D01*
D43*
X140987107Y-56212893D02*
X140987107Y-56152893D01*
X140934214Y-56265786D02*
X140987107Y-56212893D01*
X140987107Y-56318679D02*
X140934214Y-56265786D01*
X142107107Y-59612893D02*
X141960000Y-59465786D01*
X141687107Y-54092893D02*
X141907107Y-54092893D01*
%TO.N,/SWD_NRST*%
X141147107Y-59612893D02*
X141147107Y-60702893D01*
D45*
%TO.N,GND*%
X149460000Y-59600000D02*
X148860000Y-59600000D01*
X150360000Y-58700000D02*
X149460000Y-59600000D01*
X150360000Y-57822893D02*
X150360000Y-58700000D01*
X150360000Y-57822893D02*
X150360000Y-57300000D01*
D43*
%TO.N,/SMPS_FB*%
X168452893Y-52992893D02*
X168360000Y-52900000D01*
X169674607Y-52992893D02*
X168452893Y-52992893D01*
D45*
%TO.N,GND*%
X126350000Y-65625786D02*
X126350000Y-64900000D01*
X126837107Y-66112893D02*
X126350000Y-65625786D01*
D43*
%TO.N,/USBC_D-*%
X126040000Y-59150000D02*
X129910000Y-59150000D01*
D44*
%TO.N,/SWD_DIO*%
X134934700Y-55904700D02*
X135130000Y-56100000D01*
%TO.N,/USB_D-*%
X133160000Y-61700000D02*
X132810000Y-62050000D01*
D45*
%TO.N,+3V3*%
X153860000Y-57700000D02*
X155360000Y-57700000D01*
X153860000Y-57700000D02*
X152560000Y-57700000D01*
X143387107Y-55592893D02*
X143787107Y-55992893D01*
D44*
X163314030Y-62750000D02*
X163610000Y-62454030D01*
X163490330Y-64769670D02*
X165110000Y-63150000D01*
D45*
X146760000Y-54500000D02*
X147360000Y-55100000D01*
X142867107Y-55592893D02*
X143387107Y-55592893D01*
X132360000Y-63100000D02*
X131560000Y-63900000D01*
D43*
X166749386Y-56350000D02*
X167514007Y-55585379D01*
D45*
X146760000Y-52700000D02*
X146760000Y-52900000D01*
D44*
X165110000Y-63150000D02*
X165110000Y-62037500D01*
D45*
X147260000Y-53600000D02*
X147900000Y-53600000D01*
X147360000Y-55100000D02*
X147880000Y-55100000D01*
X146760000Y-56100000D02*
X146760000Y-53500000D01*
D43*
X167514007Y-55585379D02*
X167514007Y-55454007D01*
D45*
X142867107Y-54092893D02*
X143487107Y-54092893D01*
D44*
X162897500Y-62750000D02*
X163314030Y-62750000D01*
X162560000Y-64769670D02*
X162560000Y-63087500D01*
X162560000Y-64769670D02*
X163490330Y-64769670D01*
D45*
X133085000Y-64600000D02*
X132260000Y-64600000D01*
X146760000Y-52900000D02*
X146760000Y-53500000D01*
D44*
X135130000Y-57370000D02*
X134800000Y-57700000D01*
D45*
X146760000Y-53100000D02*
X147260000Y-53600000D01*
X143487107Y-54092893D02*
X143787107Y-54392893D01*
D44*
X134800000Y-57700000D02*
X132360000Y-57700000D01*
D45*
X146760000Y-57700000D02*
X146760000Y-52900000D01*
X147185000Y-52275000D02*
X146760000Y-52700000D01*
D43*
X166297500Y-56350000D02*
X166297500Y-56850000D01*
D45*
X133085000Y-63100000D02*
X132360000Y-63100000D01*
D43*
X166297500Y-56350000D02*
X166749386Y-56350000D01*
D45*
X146760000Y-53500000D02*
X146760000Y-54500000D01*
X147920000Y-58100000D02*
X147160000Y-58100000D01*
D44*
X163610000Y-62454030D02*
X163610000Y-62037500D01*
D45*
X147260000Y-59600000D02*
X146760000Y-59100000D01*
X146760000Y-57900000D02*
X146760000Y-55200000D01*
X143787107Y-54392893D02*
X143787107Y-54792893D01*
X132260000Y-64600000D02*
X131560000Y-63900000D01*
X147160000Y-58100000D02*
X146760000Y-57700000D01*
X146760000Y-52900000D02*
X146760000Y-53100000D01*
D44*
X162560000Y-63087500D02*
X162897500Y-62750000D01*
D45*
X143787107Y-54792893D02*
X143787107Y-55992893D01*
X147260000Y-56600000D02*
X146760000Y-56100000D01*
D44*
X159422500Y-55850000D02*
X160110000Y-55162500D01*
D45*
X147920000Y-56600000D02*
X147260000Y-56600000D01*
X147900000Y-59600000D02*
X147260000Y-59600000D01*
X146760000Y-59100000D02*
X146760000Y-57900000D01*
D43*
%TO.N,GND*%
X125665000Y-55325000D02*
X124185000Y-55325000D01*
X160395000Y-66300000D02*
X160395000Y-65310000D01*
X160395000Y-65310000D02*
X160385000Y-65300000D01*
D45*
X148880000Y-58100000D02*
X149560000Y-58100000D01*
D43*
X126040000Y-55700000D02*
X125665000Y-55325000D01*
D45*
X136760000Y-65300000D02*
X136760000Y-64500000D01*
X137560000Y-66100000D02*
X136760000Y-65300000D01*
D46*
X125850000Y-52900000D02*
X125050000Y-53700000D01*
D45*
X137760000Y-63500000D02*
X136760000Y-64500000D01*
D43*
X136860000Y-64600000D02*
X136760000Y-64500000D01*
X124185000Y-55325000D02*
X123560000Y-54700000D01*
D45*
X175760000Y-61150000D02*
X175760000Y-62100000D01*
X136760000Y-64500000D02*
X136760000Y-64100000D01*
X176960000Y-61200000D02*
X176960000Y-62100000D01*
D43*
X128822500Y-54100000D02*
X129860000Y-54100000D01*
D45*
X149560000Y-55100000D02*
X150360000Y-54300000D01*
X176335000Y-60575000D02*
X175760000Y-61150000D01*
D44*
X164610000Y-60950000D02*
X164360000Y-60700000D01*
D45*
X138890000Y-66100000D02*
X137560000Y-66100000D01*
X138860000Y-64600000D02*
X136860000Y-64600000D01*
X169100000Y-58073750D02*
X169100000Y-57126250D01*
X175760000Y-57050000D02*
X175760000Y-55900000D01*
X134635000Y-66100000D02*
X135960000Y-66100000D01*
D44*
X164610000Y-62037500D02*
X164610000Y-60950000D01*
X125640000Y-62500000D02*
X123960000Y-62500000D01*
X126040000Y-62100000D02*
X125640000Y-62500000D01*
D45*
X135960000Y-66100000D02*
X136760000Y-65300000D01*
X149660000Y-53600000D02*
X150360000Y-52900000D01*
X150360000Y-54300000D02*
X150360000Y-52900000D01*
X176335000Y-57625000D02*
X175760000Y-57050000D01*
X150360000Y-55700000D02*
X150360000Y-54300000D01*
X148880000Y-56600000D02*
X149460000Y-56600000D01*
X148860000Y-53600000D02*
X149660000Y-53600000D01*
X176335000Y-57625000D02*
X176960000Y-57000000D01*
X176960000Y-57000000D02*
X176960000Y-55900000D01*
X148840000Y-55100000D02*
X149560000Y-55100000D01*
X149460000Y-56600000D02*
X150360000Y-55700000D01*
X134635000Y-64600000D02*
X136860000Y-64600000D01*
D46*
X172187500Y-59500000D02*
X172960000Y-59500000D01*
D43*
X123560000Y-54700000D02*
X123560000Y-53700000D01*
D45*
X176335000Y-60575000D02*
X176960000Y-61200000D01*
X149560000Y-58100000D02*
X150360000Y-57300000D01*
X150360000Y-57300000D02*
X150360000Y-55700000D01*
X136760000Y-64100000D02*
X135760000Y-63100000D01*
X135760000Y-63100000D02*
X134635000Y-63100000D01*
D46*
X172960000Y-59500000D02*
X173160000Y-59300000D01*
D43*
X169350000Y-56876250D02*
X169100000Y-57126250D01*
D46*
X125050000Y-53700000D02*
X123560000Y-53700000D01*
D45*
%TO.N,+5V*%
X130960000Y-66100000D02*
X133085000Y-66100000D01*
X129760000Y-64900000D02*
X130960000Y-66100000D01*
D44*
%TO.N,/SWD_NRST*%
X135382450Y-61077550D02*
X135360000Y-61100000D01*
X135382450Y-58387550D02*
X135382450Y-61077550D01*
X136400000Y-57370000D02*
X135382450Y-58387550D01*
D43*
%TO.N,/SMPS_FB*%
X166297500Y-58350000D02*
X166820096Y-58350000D01*
D44*
%TO.N,/RF*%
X164110000Y-62037500D02*
X164110000Y-62950000D01*
D43*
X170087500Y-58120000D02*
X170067500Y-58100000D01*
D44*
X164110000Y-62950000D02*
X163560000Y-63500000D01*
D43*
X170087500Y-59115000D02*
X170087500Y-58120000D01*
%TO.N,/RF_MATCH*%
X171607418Y-58887500D02*
X170409918Y-60085000D01*
X171960000Y-58887500D02*
X171607418Y-58887500D01*
X170067500Y-60105000D02*
X170087500Y-60085000D01*
X170409918Y-60085000D02*
X170087500Y-60085000D01*
X170067500Y-61100000D02*
X170067500Y-60105000D01*
D44*
%TO.N,/LSE_IN*%
X159005970Y-56350000D02*
X158360000Y-55704030D01*
X159422500Y-56350000D02*
X159005970Y-56350000D01*
X158360000Y-55704030D02*
X158360000Y-54500000D01*
D43*
%TO.N,/BOOT*%
X138850000Y-63100000D02*
X138850000Y-63590000D01*
X139560000Y-63900000D02*
X139880000Y-64220000D01*
X139160000Y-63900000D02*
X139560000Y-63900000D01*
X138850000Y-63590000D02*
X139160000Y-63900000D01*
X139850000Y-64630000D02*
X139880000Y-64600000D01*
X139880000Y-64220000D02*
X139880000Y-64600000D01*
X139850000Y-66100000D02*
X139850000Y-64630000D01*
%TO.N,Net-(D1-K)*%
X159375000Y-66300000D02*
X159375000Y-64125000D01*
X159375000Y-64125000D02*
X159400000Y-64100000D01*
%TO.N,/RF_ANT*%
X171960000Y-60112500D02*
X173797500Y-60112500D01*
X173797500Y-60112500D02*
X174810000Y-59100000D01*
%TO.N,/USBC_D+*%
X125432590Y-58650000D02*
X125165000Y-58917590D01*
X126040000Y-58650000D02*
X125432590Y-58650000D01*
X125165000Y-58917590D02*
X125165000Y-59382410D01*
X125165000Y-59382410D02*
X125432590Y-59650000D01*
X125432590Y-59650000D02*
X126040000Y-59650000D01*
%TO.N,/USBC_CC2*%
X123760000Y-64100000D02*
X126570000Y-64100000D01*
X124610000Y-60650000D02*
X122960000Y-62300000D01*
X126570000Y-64100000D02*
X127370000Y-64900000D01*
X122960000Y-63300000D02*
X123760000Y-64100000D01*
X122960000Y-62300000D02*
X122960000Y-63300000D01*
X126040000Y-60650000D02*
X124610000Y-60650000D01*
D44*
%TO.N,Net-(J4-SWO)*%
X162610000Y-54550000D02*
X162610000Y-55162500D01*
X161960000Y-53900000D02*
X162610000Y-54550000D01*
%TO.N,/UART_TX*%
X157470000Y-63700000D02*
X157470000Y-63190000D01*
X157470000Y-63190000D02*
X158160000Y-62500000D01*
%TO.N,/UART_RX*%
X157520000Y-61350000D02*
X157470000Y-61300000D01*
X159422500Y-61350000D02*
X157520000Y-61350000D01*
D43*
%TO.N,/USB_D+*%
X165689098Y-53228036D02*
X165560000Y-53357134D01*
%TO.N,/HSE_OUT*%
X165660000Y-65650000D02*
X165660000Y-66200000D01*
X165660000Y-66200000D02*
X165160000Y-66700000D01*
X165160000Y-66700000D02*
X164360000Y-66700000D01*
X163560000Y-65300000D02*
X165610000Y-63250000D01*
X163560000Y-65900000D02*
X163560000Y-65300000D01*
X164360000Y-66700000D02*
X163560000Y-65900000D01*
X165610000Y-63250000D02*
X165610000Y-62037500D01*
%TO.N,Net-(X1-Pad2)*%
X164390331Y-65469669D02*
X165310000Y-64550000D01*
X165310000Y-64550000D02*
X165660000Y-64550000D01*
X164390331Y-65669669D02*
X164390331Y-65469669D01*
%TD*%
M02*
