%TF.GenerationSoftware,KiCad,Pcbnew,7.0.10*%
%TF.CreationDate,2024-02-24T19:37:40+01:00*%
%TF.ProjectId,STM32,53544d33-322e-46b6-9963-61645f706362,Rev01*%
%TF.SameCoordinates,Original*%
%TF.FileFunction,Legend,Bot*%
%TF.FilePolarity,Positive*%
%FSLAX46Y46*%
G04 Gerber Fmt 4.6, Leading zero omitted, Abs format (unit mm)*
G04 Created by KiCad (PCBNEW 7.0.10) date 2024-02-24 19:37:40*
%MOMM*%
%LPD*%
G01*
G04 APERTURE LIST*
%ADD10C,0.300000*%
G04 APERTURE END LIST*
D10*
G36*
X133856637Y-65295535D02*
G01*
X133893641Y-65332539D01*
X133946820Y-65438898D01*
X134009776Y-65690720D01*
X134009776Y-66010936D01*
X133946820Y-66262757D01*
X133893640Y-66369117D01*
X133856637Y-66406121D01*
X133767224Y-66450828D01*
X133695186Y-66450828D01*
X133605773Y-66406122D01*
X133568769Y-66369118D01*
X133515589Y-66262758D01*
X133452633Y-66010934D01*
X133452633Y-65690721D01*
X133515589Y-65438897D01*
X133568769Y-65332538D01*
X133605773Y-65295534D01*
X133695186Y-65250828D01*
X133767223Y-65250828D01*
X133856637Y-65295535D01*
G37*
G36*
X144713778Y-65295535D02*
G01*
X144750782Y-65332539D01*
X144803961Y-65438898D01*
X144866917Y-65690720D01*
X144866917Y-66010936D01*
X144803961Y-66262757D01*
X144750781Y-66369117D01*
X144713778Y-66406121D01*
X144624365Y-66450828D01*
X144552327Y-66450828D01*
X144462914Y-66406122D01*
X144425910Y-66369118D01*
X144372730Y-66262758D01*
X144309774Y-66010934D01*
X144309774Y-65690721D01*
X144372730Y-65438897D01*
X144425910Y-65332538D01*
X144462914Y-65295534D01*
X144552327Y-65250828D01*
X144624364Y-65250828D01*
X144713778Y-65295535D01*
G37*
G36*
X145381203Y-66965114D02*
G01*
X130009777Y-66965114D01*
X130009777Y-66100828D01*
X130224063Y-66100828D01*
X130244159Y-66175828D01*
X130299063Y-66230732D01*
X130374063Y-66250828D01*
X130438349Y-66250828D01*
X130438349Y-66600828D01*
X130458445Y-66675828D01*
X130513349Y-66730732D01*
X130588349Y-66750828D01*
X130663349Y-66730732D01*
X130718253Y-66675828D01*
X130738349Y-66600828D01*
X131724062Y-66600828D01*
X131744158Y-66675828D01*
X131799062Y-66730732D01*
X131874062Y-66750828D01*
X132802634Y-66750828D01*
X132821709Y-66745717D01*
X132841457Y-66745717D01*
X132858559Y-66735843D01*
X132877634Y-66730732D01*
X132891598Y-66716767D01*
X132908700Y-66706894D01*
X132918573Y-66689792D01*
X132932538Y-66675828D01*
X132937649Y-66656753D01*
X132947523Y-66639651D01*
X132947523Y-66619902D01*
X132952634Y-66600828D01*
X132947523Y-66581753D01*
X132947523Y-66562005D01*
X132937649Y-66544902D01*
X132932538Y-66525828D01*
X132918573Y-66511863D01*
X132908700Y-66494762D01*
X132443338Y-66029400D01*
X133152633Y-66029400D01*
X133157423Y-66047276D01*
X133157112Y-66065781D01*
X133228541Y-66351494D01*
X133236577Y-66365971D01*
X133239898Y-66382196D01*
X133311327Y-66525053D01*
X133327349Y-66543121D01*
X133339424Y-66564036D01*
X133410852Y-66635465D01*
X133431767Y-66647540D01*
X133449837Y-66663564D01*
X133592695Y-66734992D01*
X133626470Y-66741903D01*
X133659776Y-66750828D01*
X133802633Y-66750828D01*
X133835938Y-66741903D01*
X133869714Y-66734992D01*
X134012573Y-66663564D01*
X134030642Y-66647540D01*
X134051558Y-66635465D01*
X134086195Y-66600828D01*
X134581204Y-66600828D01*
X134601300Y-66675828D01*
X134656204Y-66730732D01*
X134731204Y-66750828D01*
X135659776Y-66750828D01*
X135678851Y-66745717D01*
X135698599Y-66745717D01*
X135715701Y-66735843D01*
X135734776Y-66730732D01*
X135748740Y-66716767D01*
X135765842Y-66706894D01*
X135775715Y-66689792D01*
X135789680Y-66675828D01*
X135794791Y-66656753D01*
X135804665Y-66639651D01*
X135804665Y-66619902D01*
X135809776Y-66600828D01*
X135804665Y-66581753D01*
X135804665Y-66562005D01*
X135794791Y-66544902D01*
X135789680Y-66525828D01*
X135775715Y-66511863D01*
X135765842Y-66494762D01*
X135300480Y-66029400D01*
X136081205Y-66029400D01*
X136101301Y-66104400D01*
X136156205Y-66159304D01*
X136231205Y-66179400D01*
X137374062Y-66179400D01*
X137449062Y-66159304D01*
X137503966Y-66104400D01*
X137504923Y-66100828D01*
X137795490Y-66100828D01*
X137815586Y-66175828D01*
X137870490Y-66230732D01*
X137945490Y-66250828D01*
X138009776Y-66250828D01*
X138009776Y-66600828D01*
X138029872Y-66675828D01*
X138084776Y-66730732D01*
X138159776Y-66750828D01*
X138234776Y-66730732D01*
X138289680Y-66675828D01*
X138309776Y-66600828D01*
X139295489Y-66600828D01*
X139315585Y-66675828D01*
X139370489Y-66730732D01*
X139445489Y-66750828D01*
X140374061Y-66750828D01*
X140393136Y-66745717D01*
X140412884Y-66745717D01*
X140429986Y-66735843D01*
X140449061Y-66730732D01*
X140463025Y-66716767D01*
X140480127Y-66706894D01*
X140490000Y-66689792D01*
X140503965Y-66675828D01*
X140509076Y-66656753D01*
X140518950Y-66639651D01*
X140518950Y-66619902D01*
X140524061Y-66600828D01*
X142581203Y-66600828D01*
X142601299Y-66675828D01*
X142656203Y-66730732D01*
X142731203Y-66750828D01*
X143659775Y-66750828D01*
X143678850Y-66745717D01*
X143698598Y-66745717D01*
X143715700Y-66735843D01*
X143734775Y-66730732D01*
X143748739Y-66716767D01*
X143765841Y-66706894D01*
X143775714Y-66689792D01*
X143789679Y-66675828D01*
X143794790Y-66656753D01*
X143804664Y-66639651D01*
X143804664Y-66619902D01*
X143809775Y-66600828D01*
X143804664Y-66581753D01*
X143804664Y-66562005D01*
X143794790Y-66544902D01*
X143789679Y-66525828D01*
X143775714Y-66511863D01*
X143765841Y-66494762D01*
X143300479Y-66029400D01*
X144009774Y-66029400D01*
X144014564Y-66047276D01*
X144014253Y-66065781D01*
X144085682Y-66351494D01*
X144093718Y-66365971D01*
X144097039Y-66382196D01*
X144168468Y-66525053D01*
X144184490Y-66543121D01*
X144196565Y-66564036D01*
X144267993Y-66635465D01*
X144288908Y-66647540D01*
X144306978Y-66663564D01*
X144449836Y-66734992D01*
X144483611Y-66741903D01*
X144516917Y-66750828D01*
X144659774Y-66750828D01*
X144693079Y-66741903D01*
X144726855Y-66734992D01*
X144869714Y-66663564D01*
X144887783Y-66647540D01*
X144908699Y-66635465D01*
X144980127Y-66564036D01*
X144992201Y-66543121D01*
X145008224Y-66525053D01*
X145079653Y-66382197D01*
X145082973Y-66365970D01*
X145091010Y-66351494D01*
X145162438Y-66065780D01*
X145162126Y-66047277D01*
X145166917Y-66029400D01*
X145166917Y-65672257D01*
X145162126Y-65654379D01*
X145162438Y-65635877D01*
X145091010Y-65350162D01*
X145082973Y-65335685D01*
X145079653Y-65319459D01*
X145008224Y-65176603D01*
X144992201Y-65158534D01*
X144980126Y-65137619D01*
X144908698Y-65066191D01*
X144887783Y-65054116D01*
X144869714Y-65038093D01*
X144726856Y-64966664D01*
X144693075Y-64959751D01*
X144659774Y-64950828D01*
X144516917Y-64950828D01*
X144483616Y-64959750D01*
X144449834Y-64966664D01*
X144306978Y-65038093D01*
X144288909Y-65054115D01*
X144267994Y-65066191D01*
X144196566Y-65137619D01*
X144184490Y-65158534D01*
X144168468Y-65176603D01*
X144097039Y-65319460D01*
X144093718Y-65335684D01*
X144085682Y-65350162D01*
X144014253Y-65635877D01*
X144014564Y-65654380D01*
X144009774Y-65672257D01*
X144009774Y-66029400D01*
X143300479Y-66029400D01*
X142933736Y-65662657D01*
X142881203Y-65505058D01*
X142881203Y-65421952D01*
X142925910Y-65332538D01*
X142962914Y-65295535D01*
X143052328Y-65250828D01*
X143338651Y-65250828D01*
X143428064Y-65295535D01*
X143482280Y-65349751D01*
X143549523Y-65388574D01*
X143627169Y-65388574D01*
X143694412Y-65349751D01*
X143733235Y-65282508D01*
X143733235Y-65204862D01*
X143694412Y-65137619D01*
X143622984Y-65066191D01*
X143602068Y-65054115D01*
X143584000Y-65038093D01*
X143441143Y-64966664D01*
X143407362Y-64959751D01*
X143374061Y-64950828D01*
X143016918Y-64950828D01*
X142983617Y-64959750D01*
X142949835Y-64966664D01*
X142806979Y-65038093D01*
X142788910Y-65054115D01*
X142767996Y-65066190D01*
X142696567Y-65137618D01*
X142684490Y-65158534D01*
X142668468Y-65176603D01*
X142597039Y-65319460D01*
X142590126Y-65353240D01*
X142581203Y-65386542D01*
X142581203Y-65529400D01*
X142587453Y-65552728D01*
X142588901Y-65576835D01*
X142660330Y-65791119D01*
X142679321Y-65819882D01*
X142696566Y-65849751D01*
X143297643Y-66450828D01*
X142731203Y-66450828D01*
X142656203Y-66470924D01*
X142601299Y-66525828D01*
X142581203Y-66600828D01*
X140524061Y-66600828D01*
X140518950Y-66581753D01*
X140518950Y-66562005D01*
X140509076Y-66544902D01*
X140503965Y-66525828D01*
X140490000Y-66511863D01*
X140480127Y-66494762D01*
X140014765Y-66029400D01*
X140795490Y-66029400D01*
X140815586Y-66104400D01*
X140870490Y-66159304D01*
X140945490Y-66179400D01*
X142088347Y-66179400D01*
X142163347Y-66159304D01*
X142218251Y-66104400D01*
X142238347Y-66029400D01*
X142218251Y-65954400D01*
X142163347Y-65899496D01*
X142088347Y-65879400D01*
X140945490Y-65879400D01*
X140870490Y-65899496D01*
X140815586Y-65954400D01*
X140795490Y-66029400D01*
X140014765Y-66029400D01*
X139648022Y-65662657D01*
X139595489Y-65505058D01*
X139595489Y-65421952D01*
X139640196Y-65332538D01*
X139677200Y-65295535D01*
X139766614Y-65250828D01*
X140052937Y-65250828D01*
X140142350Y-65295535D01*
X140196566Y-65349751D01*
X140263809Y-65388574D01*
X140341455Y-65388574D01*
X140408698Y-65349751D01*
X140447521Y-65282508D01*
X140447521Y-65204862D01*
X140408698Y-65137619D01*
X140337270Y-65066191D01*
X140316354Y-65054115D01*
X140298286Y-65038093D01*
X140155429Y-64966664D01*
X140121648Y-64959751D01*
X140088347Y-64950828D01*
X139731204Y-64950828D01*
X139697903Y-64959750D01*
X139664121Y-64966664D01*
X139521265Y-65038093D01*
X139503196Y-65054115D01*
X139482282Y-65066190D01*
X139410853Y-65137618D01*
X139398776Y-65158534D01*
X139382754Y-65176603D01*
X139311325Y-65319460D01*
X139304412Y-65353240D01*
X139295489Y-65386542D01*
X139295489Y-65529400D01*
X139301739Y-65552728D01*
X139303187Y-65576835D01*
X139374616Y-65791119D01*
X139393607Y-65819882D01*
X139410852Y-65849751D01*
X140011929Y-66450828D01*
X139445489Y-66450828D01*
X139370489Y-66470924D01*
X139315585Y-66525828D01*
X139295489Y-66600828D01*
X138309776Y-66600828D01*
X138309776Y-66250828D01*
X138874061Y-66250828D01*
X138897391Y-66244576D01*
X138921495Y-66243130D01*
X138934270Y-66234695D01*
X138949061Y-66230732D01*
X138966140Y-66213652D01*
X138986291Y-66200348D01*
X138993137Y-66186655D01*
X139003965Y-66175828D01*
X139010215Y-66152500D01*
X139021016Y-66130900D01*
X139020098Y-66115616D01*
X139024061Y-66100828D01*
X139017810Y-66077499D01*
X139016363Y-66053393D01*
X138659220Y-64981966D01*
X138616439Y-64917169D01*
X138546990Y-64882445D01*
X138469484Y-64887098D01*
X138404687Y-64929879D01*
X138369963Y-64999328D01*
X138374616Y-65076834D01*
X138665947Y-65950828D01*
X138309776Y-65950828D01*
X138309776Y-65600828D01*
X138289680Y-65525828D01*
X138234776Y-65470924D01*
X138159776Y-65450828D01*
X138084776Y-65470924D01*
X138029872Y-65525828D01*
X138009776Y-65600828D01*
X138009776Y-65950828D01*
X137945490Y-65950828D01*
X137870490Y-65970924D01*
X137815586Y-66025828D01*
X137795490Y-66100828D01*
X137504923Y-66100828D01*
X137524062Y-66029400D01*
X137503966Y-65954400D01*
X137449062Y-65899496D01*
X137374062Y-65879400D01*
X136231205Y-65879400D01*
X136156205Y-65899496D01*
X136101301Y-65954400D01*
X136081205Y-66029400D01*
X135300480Y-66029400D01*
X134933737Y-65662657D01*
X134881204Y-65505058D01*
X134881204Y-65421952D01*
X134925911Y-65332538D01*
X134962915Y-65295535D01*
X135052329Y-65250828D01*
X135338652Y-65250828D01*
X135428065Y-65295535D01*
X135482281Y-65349751D01*
X135549524Y-65388574D01*
X135627170Y-65388574D01*
X135694413Y-65349751D01*
X135733236Y-65282508D01*
X135733236Y-65204862D01*
X135694413Y-65137619D01*
X135622985Y-65066191D01*
X135602069Y-65054115D01*
X135584001Y-65038093D01*
X135441144Y-64966664D01*
X135407363Y-64959751D01*
X135374062Y-64950828D01*
X135016919Y-64950828D01*
X134983618Y-64959750D01*
X134949836Y-64966664D01*
X134806980Y-65038093D01*
X134788911Y-65054115D01*
X134767997Y-65066190D01*
X134696568Y-65137618D01*
X134684491Y-65158534D01*
X134668469Y-65176603D01*
X134597040Y-65319460D01*
X134590127Y-65353240D01*
X134581204Y-65386542D01*
X134581204Y-65529400D01*
X134587454Y-65552728D01*
X134588902Y-65576835D01*
X134660331Y-65791119D01*
X134679322Y-65819882D01*
X134696567Y-65849751D01*
X135297644Y-66450828D01*
X134731204Y-66450828D01*
X134656204Y-66470924D01*
X134601300Y-66525828D01*
X134581204Y-66600828D01*
X134086195Y-66600828D01*
X134122986Y-66564036D01*
X134135060Y-66543121D01*
X134151083Y-66525053D01*
X134222512Y-66382197D01*
X134225832Y-66365970D01*
X134233869Y-66351494D01*
X134305297Y-66065780D01*
X134304985Y-66047277D01*
X134309776Y-66029400D01*
X134309776Y-65672257D01*
X134304985Y-65654379D01*
X134305297Y-65635877D01*
X134233869Y-65350162D01*
X134225832Y-65335685D01*
X134222512Y-65319459D01*
X134151083Y-65176603D01*
X134135060Y-65158534D01*
X134122985Y-65137619D01*
X134051557Y-65066191D01*
X134030642Y-65054116D01*
X134012573Y-65038093D01*
X133869715Y-64966664D01*
X133835934Y-64959751D01*
X133802633Y-64950828D01*
X133659776Y-64950828D01*
X133626475Y-64959750D01*
X133592693Y-64966664D01*
X133449837Y-65038093D01*
X133431768Y-65054115D01*
X133410853Y-65066191D01*
X133339425Y-65137619D01*
X133327349Y-65158534D01*
X133311327Y-65176603D01*
X133239898Y-65319460D01*
X133236577Y-65335684D01*
X133228541Y-65350162D01*
X133157112Y-65635877D01*
X133157423Y-65654380D01*
X133152633Y-65672257D01*
X133152633Y-66029400D01*
X132443338Y-66029400D01*
X132076595Y-65662657D01*
X132024062Y-65505058D01*
X132024062Y-65421952D01*
X132068769Y-65332538D01*
X132105773Y-65295535D01*
X132195187Y-65250828D01*
X132481510Y-65250828D01*
X132570923Y-65295535D01*
X132625139Y-65349751D01*
X132692382Y-65388574D01*
X132770028Y-65388574D01*
X132837271Y-65349751D01*
X132876094Y-65282508D01*
X132876094Y-65204862D01*
X132837271Y-65137619D01*
X132765843Y-65066191D01*
X132744927Y-65054115D01*
X132726859Y-65038093D01*
X132584002Y-64966664D01*
X132550221Y-64959751D01*
X132516920Y-64950828D01*
X132159777Y-64950828D01*
X132126476Y-64959750D01*
X132092694Y-64966664D01*
X131949838Y-65038093D01*
X131931769Y-65054115D01*
X131910855Y-65066190D01*
X131839426Y-65137618D01*
X131827349Y-65158534D01*
X131811327Y-65176603D01*
X131739898Y-65319460D01*
X131732985Y-65353240D01*
X131724062Y-65386542D01*
X131724062Y-65529400D01*
X131730312Y-65552728D01*
X131731760Y-65576835D01*
X131803189Y-65791119D01*
X131822180Y-65819882D01*
X131839425Y-65849751D01*
X132440502Y-66450828D01*
X131874062Y-66450828D01*
X131799062Y-66470924D01*
X131744158Y-66525828D01*
X131724062Y-66600828D01*
X130738349Y-66600828D01*
X130738349Y-66250828D01*
X131302634Y-66250828D01*
X131325964Y-66244576D01*
X131350068Y-66243130D01*
X131362843Y-66234695D01*
X131377634Y-66230732D01*
X131394713Y-66213652D01*
X131414864Y-66200348D01*
X131421710Y-66186655D01*
X131432538Y-66175828D01*
X131438788Y-66152500D01*
X131449589Y-66130900D01*
X131448671Y-66115616D01*
X131452634Y-66100828D01*
X131446383Y-66077499D01*
X131444936Y-66053393D01*
X131087793Y-64981966D01*
X131045012Y-64917169D01*
X130975563Y-64882445D01*
X130898057Y-64887098D01*
X130833260Y-64929879D01*
X130798536Y-64999328D01*
X130803189Y-65076834D01*
X131094520Y-65950828D01*
X130738349Y-65950828D01*
X130738349Y-65600828D01*
X130718253Y-65525828D01*
X130663349Y-65470924D01*
X130588349Y-65450828D01*
X130513349Y-65470924D01*
X130458445Y-65525828D01*
X130438349Y-65600828D01*
X130438349Y-65950828D01*
X130374063Y-65950828D01*
X130299063Y-65970924D01*
X130244159Y-66025828D01*
X130224063Y-66100828D01*
X130009777Y-66100828D01*
X130009777Y-64668159D01*
X145381203Y-64668159D01*
X145381203Y-66965114D01*
G37*
X165945489Y-66500828D02*
X165945489Y-65000828D01*
X165945489Y-65000828D02*
X165588346Y-65000828D01*
X165588346Y-65000828D02*
X165374060Y-65072257D01*
X165374060Y-65072257D02*
X165231203Y-65215114D01*
X165231203Y-65215114D02*
X165159774Y-65357971D01*
X165159774Y-65357971D02*
X165088346Y-65643685D01*
X165088346Y-65643685D02*
X165088346Y-65857971D01*
X165088346Y-65857971D02*
X165159774Y-66143685D01*
X165159774Y-66143685D02*
X165231203Y-66286542D01*
X165231203Y-66286542D02*
X165374060Y-66429400D01*
X165374060Y-66429400D02*
X165588346Y-66500828D01*
X165588346Y-66500828D02*
X165945489Y-66500828D01*
X164016917Y-65000828D02*
X164016917Y-66072257D01*
X164016917Y-66072257D02*
X164088346Y-66286542D01*
X164088346Y-66286542D02*
X164231203Y-66429400D01*
X164231203Y-66429400D02*
X164445489Y-66500828D01*
X164445489Y-66500828D02*
X164588346Y-66500828D01*
X163374060Y-66072257D02*
X162659775Y-66072257D01*
X163516917Y-66500828D02*
X163016917Y-65000828D01*
X163016917Y-65000828D02*
X162516917Y-66500828D01*
X162016918Y-66500828D02*
X162016918Y-65000828D01*
X162016918Y-65000828D02*
X161516918Y-66072257D01*
X161516918Y-66072257D02*
X161016918Y-65000828D01*
X161016918Y-65000828D02*
X161016918Y-66500828D01*
X160374060Y-66072257D02*
X159659775Y-66072257D01*
X160516917Y-66500828D02*
X160016917Y-65000828D01*
X160016917Y-65000828D02*
X159516917Y-66500828D01*
X158302632Y-66500828D02*
X159016918Y-66500828D01*
X159016918Y-66500828D02*
X159016918Y-65000828D01*
X156802632Y-65000828D02*
X155802632Y-65000828D01*
X155802632Y-65000828D02*
X156802632Y-66500828D01*
X156802632Y-66500828D02*
X155802632Y-66500828D01*
X155231204Y-66500828D02*
X155231204Y-65000828D01*
X153802632Y-66500828D02*
X154516918Y-66500828D01*
X154516918Y-66500828D02*
X154516918Y-65000828D01*
X153374060Y-66072257D02*
X152659775Y-66072257D01*
X153516917Y-66500828D02*
X153016917Y-65000828D01*
X153016917Y-65000828D02*
X152516917Y-66500828D01*
X151302632Y-66500828D02*
X152016918Y-66500828D01*
X152016918Y-66500828D02*
X152016918Y-65000828D01*
X161621679Y-52744400D02*
X161335965Y-52839638D01*
X161335965Y-52839638D02*
X160859774Y-52839638D01*
X160859774Y-52839638D02*
X160669298Y-52744400D01*
X160669298Y-52744400D02*
X160574060Y-52649161D01*
X160574060Y-52649161D02*
X160478822Y-52458685D01*
X160478822Y-52458685D02*
X160478822Y-52268209D01*
X160478822Y-52268209D02*
X160574060Y-52077733D01*
X160574060Y-52077733D02*
X160669298Y-51982495D01*
X160669298Y-51982495D02*
X160859774Y-51887257D01*
X160859774Y-51887257D02*
X161240727Y-51792019D01*
X161240727Y-51792019D02*
X161431203Y-51696780D01*
X161431203Y-51696780D02*
X161526441Y-51601542D01*
X161526441Y-51601542D02*
X161621679Y-51411066D01*
X161621679Y-51411066D02*
X161621679Y-51220590D01*
X161621679Y-51220590D02*
X161526441Y-51030114D01*
X161526441Y-51030114D02*
X161431203Y-50934876D01*
X161431203Y-50934876D02*
X161240727Y-50839638D01*
X161240727Y-50839638D02*
X160764536Y-50839638D01*
X160764536Y-50839638D02*
X160478822Y-50934876D01*
X159907393Y-50839638D02*
X158764536Y-50839638D01*
X159335965Y-52839638D02*
X159335965Y-50839638D01*
X158097869Y-52839638D02*
X158097869Y-50839638D01*
X158097869Y-50839638D02*
X157431202Y-52268209D01*
X157431202Y-52268209D02*
X156764536Y-50839638D01*
X156764536Y-50839638D02*
X156764536Y-52839638D01*
X156002631Y-50839638D02*
X154764536Y-50839638D01*
X154764536Y-50839638D02*
X155431203Y-51601542D01*
X155431203Y-51601542D02*
X155145488Y-51601542D01*
X155145488Y-51601542D02*
X154955012Y-51696780D01*
X154955012Y-51696780D02*
X154859774Y-51792019D01*
X154859774Y-51792019D02*
X154764536Y-51982495D01*
X154764536Y-51982495D02*
X154764536Y-52458685D01*
X154764536Y-52458685D02*
X154859774Y-52649161D01*
X154859774Y-52649161D02*
X154955012Y-52744400D01*
X154955012Y-52744400D02*
X155145488Y-52839638D01*
X155145488Y-52839638D02*
X155716917Y-52839638D01*
X155716917Y-52839638D02*
X155907393Y-52744400D01*
X155907393Y-52744400D02*
X156002631Y-52649161D01*
X154002631Y-51030114D02*
X153907393Y-50934876D01*
X153907393Y-50934876D02*
X153716917Y-50839638D01*
X153716917Y-50839638D02*
X153240726Y-50839638D01*
X153240726Y-50839638D02*
X153050250Y-50934876D01*
X153050250Y-50934876D02*
X152955012Y-51030114D01*
X152955012Y-51030114D02*
X152859774Y-51220590D01*
X152859774Y-51220590D02*
X152859774Y-51411066D01*
X152859774Y-51411066D02*
X152955012Y-51696780D01*
X152955012Y-51696780D02*
X154097869Y-52839638D01*
X154097869Y-52839638D02*
X152859774Y-52839638D01*
X152193107Y-50839638D02*
X151716917Y-52839638D01*
X151716917Y-52839638D02*
X151335964Y-51411066D01*
X151335964Y-51411066D02*
X150955012Y-52839638D01*
X150955012Y-52839638D02*
X150478822Y-50839638D01*
X149050250Y-51792019D02*
X148764536Y-51887257D01*
X148764536Y-51887257D02*
X148669298Y-51982495D01*
X148669298Y-51982495D02*
X148574060Y-52172971D01*
X148574060Y-52172971D02*
X148574060Y-52458685D01*
X148574060Y-52458685D02*
X148669298Y-52649161D01*
X148669298Y-52649161D02*
X148764536Y-52744400D01*
X148764536Y-52744400D02*
X148955012Y-52839638D01*
X148955012Y-52839638D02*
X149716917Y-52839638D01*
X149716917Y-52839638D02*
X149716917Y-50839638D01*
X149716917Y-50839638D02*
X149050250Y-50839638D01*
X149050250Y-50839638D02*
X148859774Y-50934876D01*
X148859774Y-50934876D02*
X148764536Y-51030114D01*
X148764536Y-51030114D02*
X148669298Y-51220590D01*
X148669298Y-51220590D02*
X148669298Y-51411066D01*
X148669298Y-51411066D02*
X148764536Y-51601542D01*
X148764536Y-51601542D02*
X148859774Y-51696780D01*
X148859774Y-51696780D02*
X149050250Y-51792019D01*
X149050250Y-51792019D02*
X149716917Y-51792019D01*
X146193107Y-52077733D02*
X144669298Y-52077733D01*
X141050250Y-52839638D02*
X141716917Y-51887257D01*
X142193107Y-52839638D02*
X142193107Y-50839638D01*
X142193107Y-50839638D02*
X141431202Y-50839638D01*
X141431202Y-50839638D02*
X141240726Y-50934876D01*
X141240726Y-50934876D02*
X141145488Y-51030114D01*
X141145488Y-51030114D02*
X141050250Y-51220590D01*
X141050250Y-51220590D02*
X141050250Y-51506304D01*
X141050250Y-51506304D02*
X141145488Y-51696780D01*
X141145488Y-51696780D02*
X141240726Y-51792019D01*
X141240726Y-51792019D02*
X141431202Y-51887257D01*
X141431202Y-51887257D02*
X142193107Y-51887257D01*
X139431202Y-52744400D02*
X139621678Y-52839638D01*
X139621678Y-52839638D02*
X140002631Y-52839638D01*
X140002631Y-52839638D02*
X140193107Y-52744400D01*
X140193107Y-52744400D02*
X140288345Y-52553923D01*
X140288345Y-52553923D02*
X140288345Y-51792019D01*
X140288345Y-51792019D02*
X140193107Y-51601542D01*
X140193107Y-51601542D02*
X140002631Y-51506304D01*
X140002631Y-51506304D02*
X139621678Y-51506304D01*
X139621678Y-51506304D02*
X139431202Y-51601542D01*
X139431202Y-51601542D02*
X139335964Y-51792019D01*
X139335964Y-51792019D02*
X139335964Y-51982495D01*
X139335964Y-51982495D02*
X140288345Y-52172971D01*
X138669297Y-51506304D02*
X138193107Y-52839638D01*
X138193107Y-52839638D02*
X137716916Y-51506304D01*
X136574059Y-50839638D02*
X136383582Y-50839638D01*
X136383582Y-50839638D02*
X136193106Y-50934876D01*
X136193106Y-50934876D02*
X136097868Y-51030114D01*
X136097868Y-51030114D02*
X136002630Y-51220590D01*
X136002630Y-51220590D02*
X135907392Y-51601542D01*
X135907392Y-51601542D02*
X135907392Y-52077733D01*
X135907392Y-52077733D02*
X136002630Y-52458685D01*
X136002630Y-52458685D02*
X136097868Y-52649161D01*
X136097868Y-52649161D02*
X136193106Y-52744400D01*
X136193106Y-52744400D02*
X136383582Y-52839638D01*
X136383582Y-52839638D02*
X136574059Y-52839638D01*
X136574059Y-52839638D02*
X136764535Y-52744400D01*
X136764535Y-52744400D02*
X136859773Y-52649161D01*
X136859773Y-52649161D02*
X136955011Y-52458685D01*
X136955011Y-52458685D02*
X137050249Y-52077733D01*
X137050249Y-52077733D02*
X137050249Y-51601542D01*
X137050249Y-51601542D02*
X136955011Y-51220590D01*
X136955011Y-51220590D02*
X136859773Y-51030114D01*
X136859773Y-51030114D02*
X136764535Y-50934876D01*
X136764535Y-50934876D02*
X136574059Y-50839638D01*
X134002630Y-52839638D02*
X135145487Y-52839638D01*
X134574059Y-52839638D02*
X134574059Y-50839638D01*
X134574059Y-50839638D02*
X134764535Y-51125352D01*
X134764535Y-51125352D02*
X134955011Y-51315828D01*
X134955011Y-51315828D02*
X135145487Y-51411066D01*
M02*
