%TF.GenerationSoftware,KiCad,Pcbnew,7.0.10*%
%TF.CreationDate,2024-02-24T19:37:40+01:00*%
%TF.ProjectId,STM32,53544d33-322e-46b6-9963-61645f706362,Rev01*%
%TF.SameCoordinates,Original*%
%TF.FileFunction,Copper,L3,Inr*%
%TF.FilePolarity,Positive*%
%FSLAX46Y46*%
G04 Gerber Fmt 4.6, Leading zero omitted, Abs format (unit mm)*
G04 Created by KiCad (PCBNEW 7.0.10) date 2024-02-24 19:37:40*
%MOMM*%
%LPD*%
G01*
G04 APERTURE LIST*
G04 Aperture macros list*
%AMRoundRect*
0 Rectangle with rounded corners*
0 $1 Rounding radius*
0 $2 $3 $4 $5 $6 $7 $8 $9 X,Y pos of 4 corners*
0 Add a 4 corners polygon primitive as box body*
4,1,4,$2,$3,$4,$5,$6,$7,$8,$9,$2,$3,0*
0 Add four circle primitives for the rounded corners*
1,1,$1+$1,$2,$3*
1,1,$1+$1,$4,$5*
1,1,$1+$1,$6,$7*
1,1,$1+$1,$8,$9*
0 Add four rect primitives between the rounded corners*
20,1,$1+$1,$2,$3,$4,$5,0*
20,1,$1+$1,$4,$5,$6,$7,0*
20,1,$1+$1,$6,$7,$8,$9,0*
20,1,$1+$1,$8,$9,$2,$3,0*%
G04 Aperture macros list end*
%TA.AperFunction,ComponentPad*%
%ADD10C,4.400000*%
%TD*%
%TA.AperFunction,ComponentPad*%
%ADD11O,1.800000X1.000000*%
%TD*%
%TA.AperFunction,ComponentPad*%
%ADD12O,2.100000X1.000000*%
%TD*%
%TA.AperFunction,ComponentPad*%
%ADD13RoundRect,0.200000X-0.200000X-0.450000X0.200000X-0.450000X0.200000X0.450000X-0.200000X0.450000X0*%
%TD*%
%TA.AperFunction,ComponentPad*%
%ADD14O,0.800000X1.300000*%
%TD*%
%TA.AperFunction,ViaPad*%
%ADD15C,0.900000*%
%TD*%
%TA.AperFunction,ViaPad*%
%ADD16C,0.650000*%
%TD*%
%TA.AperFunction,ViaPad*%
%ADD17C,1.000000*%
%TD*%
G04 APERTURE END LIST*
D10*
%TO.N,GND*%
%TO.C,H4*%
X122500000Y-50500000D03*
%TD*%
%TO.N,GND*%
%TO.C,H3*%
X122500000Y-67000000D03*
%TD*%
%TO.N,GND*%
%TO.C,H2*%
X174500000Y-67000000D03*
%TD*%
%TO.N,GND*%
%TO.C,H1*%
X174500000Y-50500000D03*
%TD*%
D11*
%TO.N,GND*%
%TO.C,J3*%
X121692107Y-63212893D03*
D12*
X125872107Y-63212893D03*
D11*
X121692107Y-54572893D03*
D12*
X125872107Y-54572893D03*
%TD*%
D13*
%TO.N,+3V3*%
%TO.C,J1*%
X145392107Y-61992893D03*
D14*
%TO.N,/UART_TXC*%
X146642107Y-61992893D03*
%TO.N,/UART_RXC*%
X147892107Y-61992893D03*
%TO.N,GND*%
X149142107Y-61992893D03*
%TD*%
D15*
%TO.N,+3V3*%
X158167762Y-59200025D03*
D16*
%TO.N,GND*%
X127746315Y-60713685D03*
D15*
X163467107Y-59492893D03*
X161967107Y-59492893D03*
X163467107Y-57492893D03*
X161967107Y-57492893D03*
X164467107Y-60492893D03*
X164467107Y-58492893D03*
X164467107Y-56492893D03*
X160967107Y-58492893D03*
X160967107Y-60492893D03*
X160967107Y-56492893D03*
X158767107Y-51617893D03*
%TO.N,+3V3*%
X146767107Y-55192893D03*
X159767107Y-54092893D03*
%TO.N,GND*%
X140934214Y-56265786D03*
X150360000Y-57822893D03*
D17*
%TO.N,+3V3*%
X132360000Y-57700000D03*
D15*
X146760000Y-57900000D03*
D17*
X167514007Y-55454007D03*
D15*
X146767107Y-64192893D03*
D17*
X144867107Y-64092893D03*
X162560000Y-64769670D03*
D15*
X164110000Y-54000000D03*
X131560000Y-63900000D03*
X143787107Y-54792893D03*
X155360000Y-57700000D03*
D17*
X131067107Y-52092893D03*
D15*
X152560000Y-57700000D03*
X143787107Y-56392893D03*
%TO.N,GND*%
X176960000Y-55900000D03*
X175760000Y-55900000D03*
X176960000Y-62100000D03*
X123960000Y-62500000D03*
X126837107Y-66112893D03*
X150360000Y-52900000D03*
X160385000Y-65300000D03*
X171760000Y-61100000D03*
X137760000Y-63500000D03*
X173160000Y-59300000D03*
X168560000Y-63100000D03*
X169100000Y-57126250D03*
X129860000Y-54100000D03*
X175760000Y-62100000D03*
X161900000Y-50600000D03*
X123560000Y-53700000D03*
D17*
%TO.N,+5V*%
X129760000Y-64900000D03*
D15*
X129067107Y-56092893D03*
X128767107Y-51992893D03*
D17*
X123467107Y-57592893D03*
D15*
%TO.N,/SWD_NRST*%
X135360000Y-61100000D03*
X141147107Y-60702893D03*
%TO.N,/SMPS_FB*%
X167800000Y-58300000D03*
X168360000Y-52900000D03*
%TO.N,/RF*%
X167660000Y-61663952D03*
X163560000Y-63500000D03*
%TO.N,/LSE_IN*%
X154560000Y-54500000D03*
X158360000Y-54500000D03*
%TO.N,/BOOT*%
X142567107Y-65092893D03*
X158167107Y-57592893D03*
%TO.N,Net-(J4-SWO)*%
X138978642Y-54404428D03*
X161960000Y-53900000D03*
%TO.N,/UART_TX*%
X158351117Y-60563698D03*
X158160000Y-62500000D03*
%TO.N,/USB_D+*%
X128767107Y-63092893D03*
X165689098Y-53228036D03*
%TO.N,/USB_D-*%
X133160000Y-61700000D03*
X166560000Y-53900000D03*
%TO.N,Net-(X1-Pad2)*%
X167067107Y-66700000D03*
X164390331Y-65669669D03*
%TD*%
%TA.AperFunction,Conductor*%
%TO.N,+5V*%
G36*
X129869798Y-50332982D02*
G01*
X129915925Y-50385462D01*
X129927496Y-50437382D01*
X129936520Y-53325113D01*
X129917045Y-53392213D01*
X129864385Y-53438133D01*
X129812521Y-53449500D01*
X129781014Y-53449500D01*
X129627634Y-53487303D01*
X129487762Y-53560715D01*
X129369516Y-53665471D01*
X129279781Y-53795475D01*
X129279780Y-53795476D01*
X129223762Y-53943181D01*
X129204722Y-54099999D01*
X129204722Y-54100000D01*
X129223762Y-54256818D01*
X129267075Y-54371022D01*
X129279780Y-54404523D01*
X129369517Y-54534530D01*
X129487760Y-54639283D01*
X129487762Y-54639284D01*
X129627634Y-54712696D01*
X129781014Y-54750500D01*
X129817361Y-54750500D01*
X129884400Y-54770185D01*
X129930155Y-54822989D01*
X129941360Y-54874112D01*
X129957106Y-59912892D01*
X129957107Y-59912893D01*
X132073756Y-60860069D01*
X132126907Y-60905419D01*
X132147103Y-60972306D01*
X132147107Y-60973253D01*
X132147107Y-62124343D01*
X132127422Y-62191382D01*
X132089057Y-62229351D01*
X131364021Y-62684709D01*
X130507107Y-63222893D01*
X130507107Y-64502893D01*
X131571572Y-65108426D01*
X132177106Y-65452893D01*
X132188011Y-65452964D01*
X133583919Y-65462087D01*
X133650827Y-65482209D01*
X133696236Y-65535311D01*
X133707107Y-65586084D01*
X133707107Y-66688893D01*
X133687422Y-66755932D01*
X133634618Y-66801687D01*
X133583107Y-66812893D01*
X129599206Y-66812893D01*
X129532167Y-66793208D01*
X129510642Y-66775682D01*
X126782438Y-63991674D01*
X126749575Y-63930015D01*
X126755265Y-63860378D01*
X126797700Y-63804871D01*
X126800520Y-63802864D01*
X126890036Y-63741076D01*
X127002841Y-63613745D01*
X127081897Y-63463118D01*
X127122607Y-63297949D01*
X127122607Y-63127837D01*
X127113994Y-63092893D01*
X128111829Y-63092893D01*
X128130869Y-63249711D01*
X128149164Y-63297949D01*
X128186887Y-63397416D01*
X128276624Y-63527423D01*
X128394867Y-63632176D01*
X128394869Y-63632177D01*
X128534741Y-63705589D01*
X128688121Y-63743393D01*
X128688122Y-63743393D01*
X128846092Y-63743393D01*
X128999472Y-63705589D01*
X129139347Y-63632176D01*
X129257590Y-63527423D01*
X129347327Y-63397416D01*
X129403344Y-63249711D01*
X129422385Y-63092893D01*
X129403344Y-62936075D01*
X129347327Y-62788370D01*
X129257590Y-62658363D01*
X129139347Y-62553610D01*
X129139345Y-62553609D01*
X129139344Y-62553608D01*
X128999472Y-62480196D01*
X128846093Y-62442393D01*
X128846092Y-62442393D01*
X128688122Y-62442393D01*
X128688121Y-62442393D01*
X128534741Y-62480196D01*
X128394869Y-62553608D01*
X128276623Y-62658364D01*
X128186888Y-62788368D01*
X128186887Y-62788369D01*
X128130869Y-62936074D01*
X128111829Y-63092892D01*
X128111829Y-63092893D01*
X127113994Y-63092893D01*
X127081897Y-62962668D01*
X127067129Y-62934530D01*
X127002843Y-62812043D01*
X126981870Y-62788370D01*
X126890036Y-62684710D01*
X126840284Y-62650368D01*
X126750038Y-62588075D01*
X126590981Y-62527753D01*
X126590975Y-62527752D01*
X126464481Y-62512393D01*
X126464479Y-62512393D01*
X125384908Y-62512393D01*
X125317869Y-62492708D01*
X125296346Y-62475184D01*
X125290466Y-62469184D01*
X125257602Y-62407526D01*
X125263290Y-62337888D01*
X125305724Y-62282380D01*
X125371432Y-62258626D01*
X125379028Y-62258393D01*
X125406115Y-62258393D01*
X125406118Y-62258393D01*
X125507449Y-62243824D01*
X125604994Y-62199276D01*
X125631821Y-62187025D01*
X125631821Y-62187024D01*
X125631825Y-62187023D01*
X125735162Y-62097482D01*
X125809085Y-61982454D01*
X125847607Y-61851260D01*
X125847607Y-61714526D01*
X125809085Y-61583333D01*
X125809086Y-61583333D01*
X125735164Y-61468306D01*
X125735160Y-61468302D01*
X125631828Y-61378765D01*
X125631821Y-61378760D01*
X125507452Y-61321963D01*
X125507450Y-61321962D01*
X125507449Y-61321962D01*
X125507444Y-61321961D01*
X125507443Y-61321961D01*
X125406118Y-61307393D01*
X125338096Y-61307393D01*
X125338092Y-61307393D01*
X125285218Y-61314995D01*
X125216060Y-61305051D01*
X125163257Y-61259295D01*
X125143574Y-61192647D01*
X125142077Y-60713685D01*
X127216280Y-60713685D01*
X127234341Y-60850866D01*
X127234342Y-60850871D01*
X127287289Y-60978700D01*
X127287290Y-60978702D01*
X127287291Y-60978703D01*
X127371524Y-61088476D01*
X127481297Y-61172709D01*
X127609132Y-61225659D01*
X127732017Y-61241837D01*
X127746314Y-61243720D01*
X127746315Y-61243720D01*
X127746316Y-61243720D01*
X127759262Y-61242015D01*
X127883498Y-61225659D01*
X128011333Y-61172709D01*
X128121106Y-61088476D01*
X128205339Y-60978703D01*
X128258289Y-60850868D01*
X128276350Y-60713685D01*
X128258289Y-60576502D01*
X128205339Y-60448668D01*
X128121106Y-60338894D01*
X128121104Y-60338893D01*
X128121104Y-60338892D01*
X128011330Y-60254659D01*
X127883501Y-60201712D01*
X127883499Y-60201711D01*
X127883498Y-60201711D01*
X127792042Y-60189670D01*
X127746316Y-60183650D01*
X127746314Y-60183650D01*
X127677723Y-60192680D01*
X127609132Y-60201711D01*
X127609131Y-60201711D01*
X127609128Y-60201712D01*
X127481300Y-60254659D01*
X127371524Y-60338894D01*
X127287289Y-60448670D01*
X127234342Y-60576498D01*
X127234341Y-60576503D01*
X127216280Y-60713684D01*
X127216280Y-60713685D01*
X125142077Y-60713685D01*
X125137107Y-59122893D01*
X125137106Y-59122892D01*
X123744959Y-58239599D01*
X123698898Y-58187062D01*
X123687392Y-58134379D01*
X123694292Y-56478392D01*
X123696590Y-55926736D01*
X123716554Y-55859784D01*
X123769548Y-55814249D01*
X123820953Y-55803258D01*
X124772975Y-55806066D01*
X124839954Y-55825948D01*
X124885553Y-55878886D01*
X124896607Y-55930065D01*
X124896607Y-56071260D01*
X124935128Y-56202452D01*
X124935127Y-56202452D01*
X125009049Y-56317479D01*
X125009053Y-56317483D01*
X125112385Y-56407020D01*
X125112392Y-56407025D01*
X125209934Y-56451570D01*
X125236765Y-56463824D01*
X125338096Y-56478393D01*
X125338099Y-56478393D01*
X125406115Y-56478393D01*
X125406118Y-56478393D01*
X125507449Y-56463824D01*
X125631825Y-56407023D01*
X125735162Y-56317482D01*
X125809085Y-56202454D01*
X125847607Y-56071260D01*
X125847607Y-55934526D01*
X125847607Y-55933602D01*
X125867292Y-55866563D01*
X125920096Y-55820808D01*
X125971970Y-55809603D01*
X127080805Y-55812874D01*
X127087106Y-55812893D01*
X127087106Y-55812892D01*
X127087107Y-55812893D01*
X127089226Y-54808168D01*
X127092827Y-54778769D01*
X127122607Y-54657949D01*
X127122607Y-54487837D01*
X127093814Y-54371021D01*
X127090212Y-54341085D01*
X127090721Y-54099999D01*
X127097107Y-51072893D01*
X127097107Y-50456019D01*
X127116792Y-50388980D01*
X127169596Y-50343225D01*
X127220226Y-50332022D01*
X129802623Y-50313772D01*
X129869798Y-50332982D01*
G37*
%TD.AperFunction*%
%TD*%
%TA.AperFunction,Conductor*%
%TO.N,+3V3*%
G36*
X161131585Y-50381652D02*
G01*
X161198572Y-50401508D01*
X161244192Y-50454429D01*
X161254362Y-50520597D01*
X161244722Y-50599998D01*
X161244722Y-50600000D01*
X161263762Y-50756818D01*
X161319780Y-50904523D01*
X161409517Y-51034530D01*
X161527760Y-51139283D01*
X161527762Y-51139284D01*
X161667634Y-51212696D01*
X161821014Y-51250500D01*
X161821015Y-51250500D01*
X161978985Y-51250500D01*
X162132365Y-51212696D01*
X162272240Y-51139283D01*
X162390483Y-51034530D01*
X162480220Y-50904523D01*
X162536237Y-50756818D01*
X162555278Y-50600000D01*
X162546114Y-50524526D01*
X162557575Y-50455603D01*
X162604478Y-50403817D01*
X162669522Y-50385581D01*
X169323424Y-50402577D01*
X169390413Y-50422433D01*
X169436033Y-50475354D01*
X169447107Y-50526577D01*
X169447107Y-56383561D01*
X169427422Y-56450600D01*
X169374618Y-56496355D01*
X169305460Y-56506299D01*
X169293433Y-56503958D01*
X169178986Y-56475750D01*
X169178985Y-56475750D01*
X169021015Y-56475750D01*
X169021014Y-56475750D01*
X168867634Y-56513553D01*
X168727762Y-56586965D01*
X168609516Y-56691721D01*
X168519781Y-56821725D01*
X168519780Y-56821726D01*
X168463762Y-56969431D01*
X168444722Y-57126249D01*
X168444722Y-57126250D01*
X168463762Y-57283068D01*
X168511935Y-57410088D01*
X168519780Y-57430773D01*
X168609517Y-57560780D01*
X168727760Y-57665533D01*
X168727762Y-57665534D01*
X168867634Y-57738946D01*
X169021014Y-57776750D01*
X169021015Y-57776750D01*
X169178985Y-57776750D01*
X169293435Y-57748541D01*
X169363234Y-57751610D01*
X169420296Y-57791930D01*
X169446502Y-57856699D01*
X169447107Y-57868938D01*
X169447107Y-62959317D01*
X169427422Y-63026356D01*
X169374618Y-63072111D01*
X169305460Y-63082055D01*
X169241904Y-63053030D01*
X169204130Y-62994252D01*
X169200011Y-62974263D01*
X169196237Y-62943181D01*
X169171430Y-62877771D01*
X169140220Y-62795477D01*
X169050483Y-62665470D01*
X168932240Y-62560717D01*
X168932238Y-62560716D01*
X168932237Y-62560715D01*
X168792365Y-62487303D01*
X168638986Y-62449500D01*
X168638985Y-62449500D01*
X168481015Y-62449500D01*
X168481014Y-62449500D01*
X168327634Y-62487303D01*
X168187762Y-62560715D01*
X168069516Y-62665471D01*
X167979781Y-62795475D01*
X167979780Y-62795476D01*
X167923762Y-62943181D01*
X167904722Y-63099999D01*
X167904722Y-63100000D01*
X167923762Y-63256818D01*
X167953981Y-63336497D01*
X167979780Y-63404523D01*
X168069517Y-63534530D01*
X168187760Y-63639283D01*
X168187762Y-63639284D01*
X168327634Y-63712696D01*
X168481014Y-63750500D01*
X168481015Y-63750500D01*
X168638985Y-63750500D01*
X168792365Y-63712696D01*
X168854545Y-63680061D01*
X168932240Y-63639283D01*
X169050483Y-63534530D01*
X169140220Y-63404523D01*
X169196237Y-63256818D01*
X169200011Y-63225735D01*
X169227633Y-63161558D01*
X169285567Y-63122501D01*
X169355419Y-63120966D01*
X169415013Y-63157440D01*
X169445428Y-63220343D01*
X169447107Y-63240682D01*
X169447107Y-67038893D01*
X169427422Y-67105932D01*
X169374618Y-67151687D01*
X169323107Y-67162893D01*
X167766910Y-67162893D01*
X167699871Y-67143208D01*
X167654116Y-67090404D01*
X167644172Y-67021246D01*
X167650968Y-66994922D01*
X167652690Y-66990383D01*
X167703344Y-66856818D01*
X167722385Y-66700000D01*
X167703344Y-66543182D01*
X167647327Y-66395477D01*
X167557590Y-66265470D01*
X167439347Y-66160717D01*
X167439345Y-66160716D01*
X167439344Y-66160715D01*
X167299472Y-66087303D01*
X167146093Y-66049500D01*
X167146092Y-66049500D01*
X166988122Y-66049500D01*
X166988121Y-66049500D01*
X166834741Y-66087303D01*
X166694869Y-66160715D01*
X166576623Y-66265471D01*
X166486888Y-66395475D01*
X166486887Y-66395476D01*
X166430869Y-66543181D01*
X166411829Y-66699999D01*
X166411829Y-66700000D01*
X166430869Y-66856818D01*
X166467182Y-66952566D01*
X166481524Y-66990383D01*
X166483246Y-66994922D01*
X166488613Y-67064585D01*
X166455466Y-67126091D01*
X166394327Y-67159913D01*
X166367304Y-67162893D01*
X136721745Y-67162893D01*
X136654706Y-67143208D01*
X136642711Y-67134442D01*
X134826540Y-65632177D01*
X134247107Y-65152893D01*
X134247105Y-65152893D01*
X132239081Y-65152893D01*
X132179119Y-65137431D01*
X132098500Y-65092893D01*
X141911829Y-65092893D01*
X141930869Y-65249711D01*
X141986887Y-65397416D01*
X142076624Y-65527423D01*
X142194867Y-65632176D01*
X142194869Y-65632177D01*
X142334741Y-65705589D01*
X142488121Y-65743393D01*
X142488122Y-65743393D01*
X142646092Y-65743393D01*
X142799472Y-65705589D01*
X142939347Y-65632176D01*
X143057590Y-65527423D01*
X143147327Y-65397416D01*
X143184272Y-65300000D01*
X159729722Y-65300000D01*
X159748762Y-65456818D01*
X159781470Y-65543060D01*
X159804780Y-65604523D01*
X159894517Y-65734530D01*
X160012760Y-65839283D01*
X160012762Y-65839284D01*
X160152634Y-65912696D01*
X160306014Y-65950500D01*
X160306015Y-65950500D01*
X160463985Y-65950500D01*
X160617365Y-65912696D01*
X160757240Y-65839283D01*
X160875483Y-65734530D01*
X160920253Y-65669669D01*
X163735053Y-65669669D01*
X163754093Y-65826487D01*
X163801126Y-65950500D01*
X163810111Y-65974192D01*
X163899848Y-66104199D01*
X164018091Y-66208952D01*
X164018093Y-66208953D01*
X164157965Y-66282365D01*
X164311345Y-66320169D01*
X164311346Y-66320169D01*
X164469316Y-66320169D01*
X164622696Y-66282365D01*
X164654886Y-66265470D01*
X164762571Y-66208952D01*
X164880814Y-66104199D01*
X164970551Y-65974192D01*
X165026568Y-65826487D01*
X165045609Y-65669669D01*
X165026568Y-65512851D01*
X164970551Y-65365146D01*
X164880814Y-65235139D01*
X164762571Y-65130386D01*
X164762569Y-65130385D01*
X164762568Y-65130384D01*
X164622696Y-65056972D01*
X164469317Y-65019169D01*
X164469316Y-65019169D01*
X164311346Y-65019169D01*
X164311345Y-65019169D01*
X164157965Y-65056972D01*
X164018093Y-65130384D01*
X163899847Y-65235140D01*
X163810112Y-65365144D01*
X163810111Y-65365145D01*
X163754093Y-65512850D01*
X163735053Y-65669668D01*
X163735053Y-65669669D01*
X160920253Y-65669669D01*
X160965220Y-65604523D01*
X161021237Y-65456818D01*
X161040278Y-65300000D01*
X161033934Y-65247747D01*
X161021237Y-65143181D01*
X160974205Y-65019169D01*
X160965220Y-64995477D01*
X160875483Y-64865470D01*
X160757240Y-64760717D01*
X160757238Y-64760716D01*
X160757237Y-64760715D01*
X160617365Y-64687303D01*
X160463986Y-64649500D01*
X160463985Y-64649500D01*
X160306015Y-64649500D01*
X160306014Y-64649500D01*
X160152634Y-64687303D01*
X160012762Y-64760715D01*
X159894516Y-64865471D01*
X159804781Y-64995475D01*
X159804780Y-64995476D01*
X159748762Y-65143181D01*
X159729722Y-65299999D01*
X159729722Y-65300000D01*
X143184272Y-65300000D01*
X143203344Y-65249711D01*
X143222385Y-65092893D01*
X143218024Y-65056972D01*
X143203344Y-64936074D01*
X143176567Y-64865470D01*
X143147327Y-64788370D01*
X143057590Y-64658363D01*
X142939347Y-64553610D01*
X142939345Y-64553609D01*
X142939344Y-64553608D01*
X142799472Y-64480196D01*
X142646093Y-64442393D01*
X142646092Y-64442393D01*
X142488122Y-64442393D01*
X142488121Y-64442393D01*
X142334741Y-64480196D01*
X142194869Y-64553608D01*
X142076623Y-64658364D01*
X141986888Y-64788368D01*
X141986887Y-64788369D01*
X141930869Y-64936074D01*
X141911829Y-65092892D01*
X141911829Y-65092893D01*
X132098500Y-65092893D01*
X130841145Y-64398270D01*
X130791984Y-64348622D01*
X130777107Y-64289732D01*
X130777107Y-63543526D01*
X130789888Y-63500000D01*
X137104722Y-63500000D01*
X137123762Y-63656818D01*
X137161542Y-63756433D01*
X137179780Y-63804523D01*
X137269517Y-63934530D01*
X137387760Y-64039283D01*
X137387762Y-64039284D01*
X137527634Y-64112696D01*
X137681014Y-64150500D01*
X137681015Y-64150500D01*
X137838985Y-64150500D01*
X137992365Y-64112696D01*
X138038790Y-64088330D01*
X138132240Y-64039283D01*
X138250483Y-63934530D01*
X138340220Y-63804523D01*
X138396237Y-63656818D01*
X138415278Y-63500000D01*
X162904722Y-63500000D01*
X162923762Y-63656818D01*
X162961542Y-63756433D01*
X162979780Y-63804523D01*
X163069517Y-63934530D01*
X163187760Y-64039283D01*
X163187762Y-64039284D01*
X163327634Y-64112696D01*
X163481014Y-64150500D01*
X163481015Y-64150500D01*
X163638985Y-64150500D01*
X163792365Y-64112696D01*
X163838790Y-64088330D01*
X163932240Y-64039283D01*
X164050483Y-63934530D01*
X164140220Y-63804523D01*
X164196237Y-63656818D01*
X164215278Y-63500000D01*
X164207613Y-63436868D01*
X164196237Y-63343181D01*
X164169619Y-63272995D01*
X164140220Y-63195477D01*
X164050483Y-63065470D01*
X163932240Y-62960717D01*
X163932238Y-62960716D01*
X163932237Y-62960715D01*
X163792365Y-62887303D01*
X163638986Y-62849500D01*
X163638985Y-62849500D01*
X163481015Y-62849500D01*
X163481014Y-62849500D01*
X163327634Y-62887303D01*
X163187762Y-62960715D01*
X163069516Y-63065471D01*
X162979781Y-63195475D01*
X162979780Y-63195476D01*
X162923762Y-63343181D01*
X162904722Y-63499999D01*
X162904722Y-63500000D01*
X138415278Y-63500000D01*
X138407613Y-63436868D01*
X138396237Y-63343181D01*
X138369619Y-63272995D01*
X138340220Y-63195477D01*
X138250483Y-63065470D01*
X138132240Y-62960717D01*
X138132238Y-62960716D01*
X138132237Y-62960715D01*
X137992365Y-62887303D01*
X137838986Y-62849500D01*
X137838985Y-62849500D01*
X137681015Y-62849500D01*
X137681014Y-62849500D01*
X137527634Y-62887303D01*
X137387762Y-62960715D01*
X137269516Y-63065471D01*
X137179781Y-63195475D01*
X137179780Y-63195476D01*
X137123762Y-63343181D01*
X137104722Y-63499999D01*
X137104722Y-63500000D01*
X130789888Y-63500000D01*
X130796792Y-63476487D01*
X130837860Y-63436868D01*
X132765205Y-62294020D01*
X132832908Y-62276760D01*
X132886075Y-62290884D01*
X132927634Y-62312696D01*
X133081014Y-62350500D01*
X133081015Y-62350500D01*
X133238985Y-62350500D01*
X133392365Y-62312696D01*
X133525362Y-62242893D01*
X144492108Y-62242893D01*
X144492108Y-62499475D01*
X144498515Y-62569995D01*
X144498516Y-62570000D01*
X144549088Y-62732289D01*
X144637034Y-62877770D01*
X144757229Y-62997965D01*
X144902711Y-63085912D01*
X144902710Y-63085912D01*
X145065001Y-63136483D01*
X145065000Y-63136483D01*
X145135515Y-63142891D01*
X145135533Y-63142892D01*
X145142106Y-63142891D01*
X145142107Y-63142891D01*
X145142107Y-62242893D01*
X144492108Y-62242893D01*
X133525362Y-62242893D01*
X133532240Y-62239283D01*
X133650483Y-62134530D01*
X133740220Y-62004523D01*
X133744631Y-61992893D01*
X145137209Y-61992893D01*
X145156612Y-62090438D01*
X145211867Y-62173133D01*
X145294562Y-62228388D01*
X145367483Y-62242893D01*
X145416731Y-62242893D01*
X145489652Y-62228388D01*
X145572347Y-62173133D01*
X145627602Y-62090438D01*
X145642107Y-62017516D01*
X145642107Y-63142892D01*
X145648688Y-63142892D01*
X145719209Y-63136484D01*
X145719214Y-63136483D01*
X145881503Y-63085911D01*
X146026984Y-62997965D01*
X146147178Y-62877771D01*
X146147181Y-62877767D01*
X146183866Y-62817083D01*
X146235393Y-62769895D01*
X146304252Y-62758056D01*
X146337436Y-62766671D01*
X146339266Y-62767429D01*
X146485345Y-62827937D01*
X146563726Y-62838256D01*
X146642106Y-62848575D01*
X146642107Y-62848575D01*
X146642108Y-62848575D01*
X146709861Y-62839655D01*
X146798869Y-62827937D01*
X146944948Y-62767429D01*
X147070389Y-62671175D01*
X147166643Y-62545734D01*
X147166642Y-62545734D01*
X147168731Y-62543013D01*
X147225159Y-62501810D01*
X147294905Y-62497655D01*
X147355825Y-62531867D01*
X147365483Y-62543013D01*
X147452808Y-62656818D01*
X147463825Y-62671175D01*
X147589266Y-62767429D01*
X147735345Y-62827937D01*
X147813726Y-62838256D01*
X147892106Y-62848575D01*
X147892107Y-62848575D01*
X147892108Y-62848575D01*
X147959861Y-62839655D01*
X148048869Y-62827937D01*
X148194948Y-62767429D01*
X148320389Y-62671175D01*
X148416643Y-62545734D01*
X148416642Y-62545734D01*
X148418731Y-62543013D01*
X148475159Y-62501810D01*
X148544905Y-62497655D01*
X148605825Y-62531867D01*
X148615483Y-62543013D01*
X148702808Y-62656818D01*
X148713825Y-62671175D01*
X148839266Y-62767429D01*
X148985345Y-62827937D01*
X149063726Y-62838256D01*
X149142106Y-62848575D01*
X149142107Y-62848575D01*
X149142108Y-62848575D01*
X149209861Y-62839655D01*
X149298869Y-62827937D01*
X149444948Y-62767429D01*
X149570389Y-62671175D01*
X149666643Y-62545734D01*
X149685587Y-62500000D01*
X157504722Y-62500000D01*
X157523762Y-62656818D01*
X157576349Y-62795476D01*
X157579780Y-62804523D01*
X157669517Y-62934530D01*
X157787760Y-63039283D01*
X157787762Y-63039284D01*
X157927634Y-63112696D01*
X158081014Y-63150500D01*
X158081015Y-63150500D01*
X158238985Y-63150500D01*
X158392365Y-63112696D01*
X158443399Y-63085911D01*
X158532240Y-63039283D01*
X158650483Y-62934530D01*
X158740220Y-62804523D01*
X158796237Y-62656818D01*
X158815278Y-62500000D01*
X158813737Y-62487304D01*
X158796237Y-62343181D01*
X158774992Y-62287164D01*
X158740220Y-62195477D01*
X158650483Y-62065470D01*
X158532240Y-61960717D01*
X158532238Y-61960716D01*
X158532237Y-61960715D01*
X158392365Y-61887303D01*
X158238986Y-61849500D01*
X158238985Y-61849500D01*
X158081015Y-61849500D01*
X158081014Y-61849500D01*
X157927634Y-61887303D01*
X157787762Y-61960715D01*
X157669516Y-62065471D01*
X157579781Y-62195475D01*
X157579780Y-62195476D01*
X157523762Y-62343181D01*
X157504722Y-62499999D01*
X157504722Y-62500000D01*
X149685587Y-62500000D01*
X149727151Y-62399655D01*
X149742607Y-62282254D01*
X149742607Y-61703532D01*
X149737396Y-61663952D01*
X167004722Y-61663952D01*
X167023762Y-61820770D01*
X167052373Y-61896209D01*
X167079780Y-61968475D01*
X167169517Y-62098482D01*
X167287760Y-62203235D01*
X167287762Y-62203236D01*
X167427634Y-62276648D01*
X167581014Y-62314452D01*
X167581015Y-62314452D01*
X167738985Y-62314452D01*
X167892365Y-62276648D01*
X168032240Y-62203235D01*
X168150483Y-62098482D01*
X168240220Y-61968475D01*
X168296237Y-61820770D01*
X168315278Y-61663952D01*
X168299564Y-61534530D01*
X168296237Y-61507133D01*
X168253891Y-61395477D01*
X168240220Y-61359429D01*
X168150483Y-61229422D01*
X168032240Y-61124669D01*
X168032238Y-61124668D01*
X168032237Y-61124667D01*
X167892365Y-61051255D01*
X167738986Y-61013452D01*
X167738985Y-61013452D01*
X167581015Y-61013452D01*
X167581014Y-61013452D01*
X167427634Y-61051255D01*
X167287762Y-61124667D01*
X167266625Y-61143393D01*
X167181153Y-61219114D01*
X167169516Y-61229423D01*
X167079781Y-61359427D01*
X167079780Y-61359428D01*
X167023762Y-61507133D01*
X167004722Y-61663951D01*
X167004722Y-61663952D01*
X149737396Y-61663952D01*
X149727151Y-61586131D01*
X149666643Y-61440052D01*
X149570389Y-61314611D01*
X149444948Y-61218357D01*
X149434907Y-61214198D01*
X149298869Y-61157849D01*
X149298867Y-61157848D01*
X149142108Y-61137211D01*
X149142106Y-61137211D01*
X148985346Y-61157848D01*
X148985344Y-61157849D01*
X148839267Y-61218356D01*
X148713825Y-61314611D01*
X148615483Y-61442773D01*
X148559054Y-61483975D01*
X148489308Y-61488130D01*
X148428388Y-61453917D01*
X148418731Y-61442773D01*
X148389381Y-61404524D01*
X148320389Y-61314611D01*
X148194948Y-61218357D01*
X148184907Y-61214198D01*
X148048869Y-61157849D01*
X148048867Y-61157848D01*
X147892108Y-61137211D01*
X147892106Y-61137211D01*
X147735346Y-61157848D01*
X147735344Y-61157849D01*
X147589267Y-61218356D01*
X147463825Y-61314611D01*
X147365483Y-61442773D01*
X147309054Y-61483975D01*
X147239308Y-61488130D01*
X147178388Y-61453917D01*
X147168731Y-61442773D01*
X147139381Y-61404524D01*
X147070389Y-61314611D01*
X146944948Y-61218357D01*
X146934907Y-61214198D01*
X146798869Y-61157849D01*
X146798867Y-61157848D01*
X146642108Y-61137211D01*
X146642106Y-61137211D01*
X146485346Y-61157848D01*
X146485341Y-61157850D01*
X146337435Y-61219114D01*
X146267966Y-61226583D01*
X146205487Y-61195307D01*
X146183866Y-61168703D01*
X146147179Y-61108015D01*
X146026984Y-60987820D01*
X145881502Y-60899873D01*
X145881503Y-60899873D01*
X145719212Y-60849302D01*
X145719213Y-60849302D01*
X145648679Y-60842893D01*
X145642107Y-60842893D01*
X145642107Y-61968269D01*
X145627602Y-61895348D01*
X145572347Y-61812653D01*
X145489652Y-61757398D01*
X145416731Y-61742893D01*
X145367483Y-61742893D01*
X145294562Y-61757398D01*
X145211867Y-61812653D01*
X145156612Y-61895348D01*
X145137209Y-61992893D01*
X133744631Y-61992893D01*
X133796237Y-61856818D01*
X133815278Y-61700000D01*
X133796237Y-61543182D01*
X133782565Y-61507133D01*
X133743651Y-61404524D01*
X133740220Y-61395477D01*
X133650483Y-61265470D01*
X133532240Y-61160717D01*
X133532238Y-61160716D01*
X133532237Y-61160715D01*
X133416557Y-61100000D01*
X134704722Y-61100000D01*
X134723762Y-61256818D01*
X134776349Y-61395476D01*
X134779780Y-61404523D01*
X134869517Y-61534530D01*
X134987760Y-61639283D01*
X134987762Y-61639284D01*
X135127634Y-61712696D01*
X135281014Y-61750500D01*
X135281015Y-61750500D01*
X135438985Y-61750500D01*
X135469848Y-61742893D01*
X144492107Y-61742893D01*
X145142107Y-61742893D01*
X145142107Y-60842893D01*
X145142106Y-60842892D01*
X145135543Y-60842893D01*
X145135524Y-60842894D01*
X145065004Y-60849301D01*
X145064999Y-60849302D01*
X144902710Y-60899874D01*
X144757229Y-60987820D01*
X144637034Y-61108015D01*
X144549087Y-61253497D01*
X144498516Y-61415786D01*
X144492107Y-61486320D01*
X144492107Y-61742893D01*
X135469848Y-61742893D01*
X135592365Y-61712696D01*
X135616557Y-61699999D01*
X135732240Y-61639283D01*
X135850483Y-61534530D01*
X135940220Y-61404523D01*
X135996237Y-61256818D01*
X136015278Y-61100000D01*
X136013955Y-61089099D01*
X135996237Y-60943181D01*
X135960633Y-60849302D01*
X135940220Y-60795477D01*
X135876314Y-60702893D01*
X140491829Y-60702893D01*
X140510869Y-60859711D01*
X140559455Y-60987820D01*
X140566887Y-61007416D01*
X140656624Y-61137423D01*
X140774867Y-61242176D01*
X140774869Y-61242177D01*
X140914741Y-61315589D01*
X141068121Y-61353393D01*
X141068122Y-61353393D01*
X141226092Y-61353393D01*
X141379472Y-61315589D01*
X141381335Y-61314611D01*
X141519347Y-61242176D01*
X141637590Y-61137423D01*
X141727327Y-61007416D01*
X141783344Y-60859711D01*
X141802385Y-60702893D01*
X141785484Y-60563698D01*
X157695839Y-60563698D01*
X157714879Y-60720516D01*
X157763722Y-60849302D01*
X157770897Y-60868221D01*
X157860634Y-60998228D01*
X157978877Y-61102981D01*
X157978879Y-61102982D01*
X158118751Y-61176394D01*
X158272131Y-61214198D01*
X158272132Y-61214198D01*
X158430102Y-61214198D01*
X158583482Y-61176394D01*
X158598136Y-61168703D01*
X158723357Y-61102981D01*
X158841600Y-60998228D01*
X158931337Y-60868221D01*
X158987354Y-60720516D01*
X159006395Y-60563698D01*
X159003162Y-60537067D01*
X158997798Y-60492893D01*
X160311829Y-60492893D01*
X160330869Y-60649711D01*
X160368559Y-60749090D01*
X160386887Y-60797416D01*
X160476624Y-60927423D01*
X160594867Y-61032176D01*
X160594869Y-61032177D01*
X160734741Y-61105589D01*
X160888121Y-61143393D01*
X160888122Y-61143393D01*
X161046092Y-61143393D01*
X161199472Y-61105589D01*
X161223353Y-61093055D01*
X161339347Y-61032176D01*
X161457590Y-60927423D01*
X161547327Y-60797416D01*
X161603344Y-60649711D01*
X161622385Y-60492893D01*
X161603344Y-60336075D01*
X161576872Y-60266276D01*
X161571506Y-60196614D01*
X161604653Y-60135108D01*
X161665791Y-60101287D01*
X161727079Y-60105331D01*
X161727458Y-60103794D01*
X161888121Y-60143393D01*
X161888122Y-60143393D01*
X162046092Y-60143393D01*
X162199472Y-60105589D01*
X162208229Y-60100993D01*
X162339347Y-60032176D01*
X162457590Y-59927423D01*
X162547327Y-59797416D01*
X162601165Y-59655457D01*
X162643343Y-59599754D01*
X162708941Y-59575697D01*
X162777131Y-59590924D01*
X162826264Y-59640600D01*
X162833049Y-59655457D01*
X162862968Y-59734346D01*
X162886887Y-59797416D01*
X162976624Y-59927423D01*
X163094867Y-60032176D01*
X163094869Y-60032177D01*
X163234741Y-60105589D01*
X163388121Y-60143393D01*
X163388122Y-60143393D01*
X163546092Y-60143393D01*
X163706756Y-60103794D01*
X163707204Y-60105614D01*
X163767071Y-60100993D01*
X163828583Y-60134131D01*
X163862413Y-60195264D01*
X163857823Y-60264983D01*
X163857340Y-60266276D01*
X163830870Y-60336071D01*
X163830870Y-60336073D01*
X163811829Y-60492892D01*
X163811829Y-60492893D01*
X163830869Y-60649711D01*
X163868559Y-60749090D01*
X163886887Y-60797416D01*
X163976624Y-60927423D01*
X164094867Y-61032176D01*
X164094869Y-61032177D01*
X164234741Y-61105589D01*
X164388121Y-61143393D01*
X164388122Y-61143393D01*
X164546092Y-61143393D01*
X164699472Y-61105589D01*
X164723353Y-61093055D01*
X164839347Y-61032176D01*
X164957590Y-60927423D01*
X165047327Y-60797416D01*
X165103344Y-60649711D01*
X165122385Y-60492893D01*
X165103344Y-60336075D01*
X165103343Y-60336073D01*
X165077664Y-60268363D01*
X165047327Y-60188370D01*
X164957590Y-60058363D01*
X164839347Y-59953610D01*
X164839345Y-59953609D01*
X164839344Y-59953608D01*
X164699472Y-59880196D01*
X164546093Y-59842393D01*
X164546092Y-59842393D01*
X164388122Y-59842393D01*
X164388121Y-59842393D01*
X164227458Y-59881992D01*
X164227010Y-59880176D01*
X164167112Y-59884786D01*
X164105609Y-59851633D01*
X164071793Y-59790492D01*
X164076401Y-59720774D01*
X164076821Y-59719644D01*
X164103344Y-59649711D01*
X164122385Y-59492893D01*
X164103344Y-59336075D01*
X164076872Y-59266276D01*
X164071506Y-59196614D01*
X164104653Y-59135108D01*
X164165791Y-59101287D01*
X164227079Y-59105331D01*
X164227458Y-59103794D01*
X164388121Y-59143393D01*
X164388122Y-59143393D01*
X164546092Y-59143393D01*
X164699472Y-59105589D01*
X164708229Y-59100993D01*
X164839347Y-59032176D01*
X164957590Y-58927423D01*
X165047327Y-58797416D01*
X165103344Y-58649711D01*
X165122385Y-58492893D01*
X165108858Y-58381483D01*
X165103344Y-58336074D01*
X165089662Y-58300000D01*
X167144722Y-58300000D01*
X167163762Y-58456818D01*
X167177444Y-58492893D01*
X167219780Y-58604523D01*
X167309517Y-58734530D01*
X167427760Y-58839283D01*
X167427762Y-58839284D01*
X167567634Y-58912696D01*
X167721014Y-58950500D01*
X167721015Y-58950500D01*
X167878985Y-58950500D01*
X168032365Y-58912696D01*
X168086089Y-58884499D01*
X168172240Y-58839283D01*
X168290483Y-58734530D01*
X168380220Y-58604523D01*
X168436237Y-58456818D01*
X168455278Y-58300000D01*
X168452561Y-58277619D01*
X168436237Y-58143181D01*
X168392614Y-58028158D01*
X168380220Y-57995477D01*
X168290483Y-57865470D01*
X168172240Y-57760717D01*
X168172238Y-57760716D01*
X168172237Y-57760715D01*
X168032365Y-57687303D01*
X167878986Y-57649500D01*
X167878985Y-57649500D01*
X167721015Y-57649500D01*
X167721014Y-57649500D01*
X167567634Y-57687303D01*
X167427762Y-57760715D01*
X167309516Y-57865471D01*
X167219781Y-57995475D01*
X167219780Y-57995476D01*
X167163762Y-58143181D01*
X167144722Y-58299999D01*
X167144722Y-58300000D01*
X165089662Y-58300000D01*
X165081173Y-58277616D01*
X165047327Y-58188370D01*
X164957590Y-58058363D01*
X164839347Y-57953610D01*
X164839345Y-57953609D01*
X164839344Y-57953608D01*
X164699472Y-57880196D01*
X164546093Y-57842393D01*
X164546092Y-57842393D01*
X164388122Y-57842393D01*
X164388121Y-57842393D01*
X164227458Y-57881992D01*
X164227010Y-57880176D01*
X164167112Y-57884786D01*
X164105609Y-57851633D01*
X164071793Y-57790492D01*
X164076401Y-57720774D01*
X164076821Y-57719644D01*
X164103344Y-57649711D01*
X164122385Y-57492893D01*
X164114842Y-57430774D01*
X164103344Y-57336075D01*
X164085252Y-57288370D01*
X164076872Y-57266276D01*
X164071506Y-57196614D01*
X164104653Y-57135108D01*
X164165791Y-57101287D01*
X164227079Y-57105331D01*
X164227458Y-57103794D01*
X164388121Y-57143393D01*
X164388122Y-57143393D01*
X164546092Y-57143393D01*
X164699472Y-57105589D01*
X164741008Y-57083789D01*
X164839347Y-57032176D01*
X164957590Y-56927423D01*
X165047327Y-56797416D01*
X165103344Y-56649711D01*
X165122385Y-56492893D01*
X165120304Y-56475750D01*
X165103344Y-56336074D01*
X165076687Y-56265786D01*
X165047327Y-56188370D01*
X164957590Y-56058363D01*
X164839347Y-55953610D01*
X164839345Y-55953609D01*
X164839344Y-55953608D01*
X164699472Y-55880196D01*
X164546093Y-55842393D01*
X164546092Y-55842393D01*
X164388122Y-55842393D01*
X164388121Y-55842393D01*
X164234741Y-55880196D01*
X164094869Y-55953608D01*
X163976623Y-56058364D01*
X163886888Y-56188368D01*
X163886887Y-56188369D01*
X163830869Y-56336074D01*
X163811829Y-56492892D01*
X163811829Y-56492893D01*
X163830870Y-56649711D01*
X163857340Y-56719508D01*
X163862707Y-56789171D01*
X163829559Y-56850678D01*
X163768421Y-56884499D01*
X163707135Y-56880453D01*
X163706756Y-56881992D01*
X163546093Y-56842393D01*
X163546092Y-56842393D01*
X163388122Y-56842393D01*
X163388121Y-56842393D01*
X163234741Y-56880196D01*
X163094869Y-56953608D01*
X162976623Y-57058364D01*
X162886888Y-57188367D01*
X162833049Y-57330329D01*
X162790871Y-57386031D01*
X162725273Y-57410088D01*
X162657083Y-57394861D01*
X162607950Y-57345185D01*
X162601165Y-57330329D01*
X162585252Y-57288370D01*
X162547327Y-57188370D01*
X162457590Y-57058363D01*
X162339347Y-56953610D01*
X162339345Y-56953609D01*
X162339344Y-56953608D01*
X162199472Y-56880196D01*
X162046093Y-56842393D01*
X162046092Y-56842393D01*
X161888122Y-56842393D01*
X161888121Y-56842393D01*
X161727458Y-56881992D01*
X161727010Y-56880176D01*
X161667112Y-56884786D01*
X161605609Y-56851633D01*
X161571793Y-56790492D01*
X161576401Y-56720774D01*
X161576821Y-56719644D01*
X161603344Y-56649711D01*
X161622385Y-56492893D01*
X161620304Y-56475750D01*
X161603344Y-56336074D01*
X161576687Y-56265786D01*
X161547327Y-56188370D01*
X161457590Y-56058363D01*
X161339347Y-55953610D01*
X161339345Y-55953609D01*
X161339344Y-55953608D01*
X161199472Y-55880196D01*
X161046093Y-55842393D01*
X161046092Y-55842393D01*
X160888122Y-55842393D01*
X160888121Y-55842393D01*
X160734741Y-55880196D01*
X160594869Y-55953608D01*
X160476623Y-56058364D01*
X160386888Y-56188368D01*
X160386887Y-56188369D01*
X160330869Y-56336074D01*
X160311829Y-56492892D01*
X160311829Y-56492893D01*
X160330869Y-56649711D01*
X160378715Y-56775868D01*
X160386887Y-56797416D01*
X160476624Y-56927423D01*
X160594867Y-57032176D01*
X160594869Y-57032177D01*
X160734741Y-57105589D01*
X160888121Y-57143393D01*
X160888122Y-57143393D01*
X161046092Y-57143393D01*
X161206756Y-57103794D01*
X161207204Y-57105614D01*
X161267071Y-57100993D01*
X161328583Y-57134131D01*
X161362413Y-57195264D01*
X161357823Y-57264983D01*
X161357340Y-57266276D01*
X161330870Y-57336071D01*
X161330870Y-57336073D01*
X161311829Y-57492892D01*
X161311829Y-57492893D01*
X161330870Y-57649711D01*
X161357340Y-57719508D01*
X161362707Y-57789171D01*
X161329559Y-57850678D01*
X161268421Y-57884499D01*
X161207135Y-57880453D01*
X161206756Y-57881992D01*
X161046093Y-57842393D01*
X161046092Y-57842393D01*
X160888122Y-57842393D01*
X160888121Y-57842393D01*
X160734741Y-57880196D01*
X160594869Y-57953608D01*
X160476623Y-58058364D01*
X160386888Y-58188368D01*
X160386887Y-58188369D01*
X160330869Y-58336074D01*
X160311829Y-58492892D01*
X160311829Y-58492893D01*
X160330869Y-58649711D01*
X160383760Y-58789171D01*
X160386887Y-58797416D01*
X160476624Y-58927423D01*
X160594867Y-59032176D01*
X160594869Y-59032177D01*
X160734741Y-59105589D01*
X160888121Y-59143393D01*
X160888122Y-59143393D01*
X161046092Y-59143393D01*
X161206756Y-59103794D01*
X161207204Y-59105614D01*
X161267071Y-59100993D01*
X161328583Y-59134131D01*
X161362413Y-59195264D01*
X161357823Y-59264983D01*
X161357340Y-59266276D01*
X161330870Y-59336071D01*
X161330870Y-59336073D01*
X161311829Y-59492892D01*
X161311829Y-59492893D01*
X161330870Y-59649711D01*
X161357340Y-59719508D01*
X161362707Y-59789171D01*
X161329559Y-59850678D01*
X161268421Y-59884499D01*
X161207135Y-59880453D01*
X161206756Y-59881992D01*
X161046093Y-59842393D01*
X161046092Y-59842393D01*
X160888122Y-59842393D01*
X160888121Y-59842393D01*
X160734741Y-59880196D01*
X160594869Y-59953608D01*
X160476623Y-60058364D01*
X160386888Y-60188368D01*
X160386887Y-60188369D01*
X160330869Y-60336074D01*
X160311829Y-60492892D01*
X160311829Y-60492893D01*
X158997798Y-60492893D01*
X158987354Y-60406879D01*
X158960501Y-60336074D01*
X158931337Y-60259175D01*
X158841600Y-60129168D01*
X158723357Y-60024415D01*
X158723355Y-60024414D01*
X158723354Y-60024413D01*
X158583482Y-59951001D01*
X158430103Y-59913198D01*
X158430102Y-59913198D01*
X158272132Y-59913198D01*
X158272131Y-59913198D01*
X158118751Y-59951001D01*
X157978879Y-60024413D01*
X157970115Y-60032177D01*
X157887250Y-60105589D01*
X157860633Y-60129169D01*
X157770898Y-60259173D01*
X157770897Y-60259174D01*
X157714879Y-60406879D01*
X157695839Y-60563697D01*
X157695839Y-60563698D01*
X141785484Y-60563698D01*
X141783344Y-60546075D01*
X141779926Y-60537063D01*
X141742404Y-60438125D01*
X141727327Y-60398370D01*
X141637590Y-60268363D01*
X141519347Y-60163610D01*
X141519345Y-60163609D01*
X141519344Y-60163608D01*
X141379472Y-60090196D01*
X141226093Y-60052393D01*
X141226092Y-60052393D01*
X141068122Y-60052393D01*
X141068121Y-60052393D01*
X140914741Y-60090196D01*
X140774869Y-60163608D01*
X140737613Y-60196614D01*
X140666998Y-60259173D01*
X140656623Y-60268364D01*
X140566888Y-60398368D01*
X140566887Y-60398369D01*
X140510869Y-60546074D01*
X140491829Y-60702892D01*
X140491829Y-60702893D01*
X135876314Y-60702893D01*
X135850483Y-60665470D01*
X135732240Y-60560717D01*
X135732238Y-60560716D01*
X135732237Y-60560715D01*
X135592365Y-60487303D01*
X135438986Y-60449500D01*
X135438985Y-60449500D01*
X135281015Y-60449500D01*
X135281014Y-60449500D01*
X135127634Y-60487303D01*
X134987762Y-60560715D01*
X134987760Y-60560717D01*
X134887306Y-60649711D01*
X134869516Y-60665471D01*
X134779781Y-60795475D01*
X134779780Y-60795476D01*
X134723762Y-60943181D01*
X134704722Y-61099999D01*
X134704722Y-61100000D01*
X133416557Y-61100000D01*
X133392365Y-61087303D01*
X133238986Y-61049500D01*
X133238985Y-61049500D01*
X133081015Y-61049500D01*
X133081014Y-61049500D01*
X132927628Y-61087305D01*
X132926598Y-61087696D01*
X132925791Y-61087758D01*
X132920351Y-61089099D01*
X132920127Y-61088193D01*
X132856934Y-61093055D01*
X132795432Y-61059901D01*
X132761617Y-60998759D01*
X132758643Y-60972543D01*
X132757107Y-60732893D01*
X132757108Y-60732893D01*
X131355643Y-60027394D01*
X131304614Y-59979668D01*
X131287400Y-59916162D01*
X131287412Y-59913198D01*
X131289852Y-59275001D01*
X132516939Y-59275001D01*
X132537342Y-59508214D01*
X132537344Y-59508225D01*
X132597932Y-59734346D01*
X132597934Y-59734350D01*
X132597935Y-59734354D01*
X132619000Y-59779528D01*
X132696874Y-59946529D01*
X132696875Y-59946531D01*
X132771001Y-60052393D01*
X132831156Y-60138303D01*
X132996697Y-60303844D01*
X133042728Y-60336075D01*
X133188468Y-60438124D01*
X133188470Y-60438125D01*
X133400646Y-60537065D01*
X133626780Y-60597657D01*
X133801579Y-60612949D01*
X133801580Y-60612950D01*
X133801581Y-60612950D01*
X133918420Y-60612950D01*
X133918420Y-60612949D01*
X134093220Y-60597657D01*
X134319354Y-60537065D01*
X134531530Y-60438125D01*
X134723303Y-60303844D01*
X134888844Y-60138303D01*
X135023125Y-59946531D01*
X135122065Y-59734354D01*
X135182657Y-59508220D01*
X135203061Y-59275001D01*
X135691939Y-59275001D01*
X135712342Y-59508214D01*
X135712344Y-59508225D01*
X135772932Y-59734346D01*
X135772934Y-59734350D01*
X135772935Y-59734354D01*
X135794000Y-59779528D01*
X135871874Y-59946529D01*
X135871875Y-59946531D01*
X135946001Y-60052393D01*
X136006156Y-60138303D01*
X136171697Y-60303844D01*
X136217728Y-60336075D01*
X136363468Y-60438124D01*
X136363470Y-60438125D01*
X136575646Y-60537065D01*
X136801780Y-60597657D01*
X136976579Y-60612949D01*
X136976580Y-60612950D01*
X136976581Y-60612950D01*
X137093420Y-60612950D01*
X137093420Y-60612949D01*
X137268220Y-60597657D01*
X137494354Y-60537065D01*
X137706530Y-60438125D01*
X137898303Y-60303844D01*
X138063844Y-60138303D01*
X138198125Y-59946531D01*
X138297065Y-59734354D01*
X138357657Y-59508220D01*
X138378061Y-59275000D01*
X138357657Y-59041780D01*
X138303399Y-58839284D01*
X138297067Y-58815653D01*
X138297066Y-58815652D01*
X138297065Y-58815646D01*
X138198125Y-58603470D01*
X138198124Y-58603468D01*
X138080573Y-58435589D01*
X138063844Y-58411697D01*
X137898303Y-58246156D01*
X137815775Y-58188369D01*
X137706531Y-58111875D01*
X137706529Y-58111874D01*
X137535618Y-58032177D01*
X137494354Y-58012935D01*
X137494350Y-58012934D01*
X137494346Y-58012932D01*
X137268225Y-57952344D01*
X137268221Y-57952343D01*
X137268220Y-57952343D01*
X137268219Y-57952342D01*
X137268214Y-57952342D01*
X137093422Y-57937050D01*
X137093419Y-57937050D01*
X136976581Y-57937050D01*
X136976577Y-57937050D01*
X136801785Y-57952342D01*
X136801774Y-57952344D01*
X136575653Y-58012932D01*
X136575644Y-58012936D01*
X136363470Y-58111874D01*
X136363468Y-58111875D01*
X136171702Y-58246152D01*
X136171695Y-58246157D01*
X136006156Y-58411696D01*
X135871873Y-58603471D01*
X135772936Y-58815644D01*
X135772932Y-58815653D01*
X135712344Y-59041774D01*
X135712342Y-59041785D01*
X135691939Y-59274998D01*
X135691939Y-59275001D01*
X135203061Y-59275001D01*
X135203061Y-59275000D01*
X135182657Y-59041780D01*
X135128399Y-58839284D01*
X135122067Y-58815653D01*
X135122066Y-58815652D01*
X135122065Y-58815646D01*
X135023125Y-58603470D01*
X135023124Y-58603468D01*
X134905573Y-58435589D01*
X134888844Y-58411697D01*
X134723303Y-58246156D01*
X134640775Y-58188369D01*
X134531531Y-58111875D01*
X134531529Y-58111874D01*
X134360618Y-58032177D01*
X134319354Y-58012935D01*
X134319350Y-58012934D01*
X134319346Y-58012932D01*
X134093225Y-57952344D01*
X134093221Y-57952343D01*
X134093220Y-57952343D01*
X134093219Y-57952342D01*
X134093214Y-57952342D01*
X133918422Y-57937050D01*
X133918419Y-57937050D01*
X133801581Y-57937050D01*
X133801577Y-57937050D01*
X133626785Y-57952342D01*
X133626774Y-57952344D01*
X133400653Y-58012932D01*
X133400644Y-58012936D01*
X133188470Y-58111874D01*
X133188468Y-58111875D01*
X132996702Y-58246152D01*
X132996695Y-58246157D01*
X132831156Y-58411696D01*
X132696873Y-58603471D01*
X132597936Y-58815644D01*
X132597932Y-58815653D01*
X132537344Y-59041774D01*
X132537342Y-59041785D01*
X132516939Y-59274998D01*
X132516939Y-59275001D01*
X131289852Y-59275001D01*
X131295837Y-57710131D01*
X138290351Y-57710131D01*
X138300597Y-57872974D01*
X138351018Y-58028154D01*
X138351020Y-58028158D01*
X138438446Y-58165918D01*
X138438447Y-58165919D01*
X138438448Y-58165920D01*
X138557391Y-58277616D01*
X138557394Y-58277618D01*
X138557396Y-58277619D01*
X138700373Y-58356221D01*
X138700375Y-58356221D01*
X138700376Y-58356222D01*
X138858416Y-58396800D01*
X138858420Y-58396800D01*
X138980630Y-58396800D01*
X138980632Y-58396800D01*
X138980637Y-58396799D01*
X138980641Y-58396799D01*
X138993784Y-58395138D01*
X139101880Y-58381483D01*
X139253589Y-58321417D01*
X139283067Y-58300000D01*
X139385592Y-58225512D01*
X139385592Y-58225510D01*
X139385594Y-58225510D01*
X139489601Y-58099787D01*
X139559074Y-57952149D01*
X139583731Y-57822893D01*
X149704722Y-57822893D01*
X149723762Y-57979711D01*
X149773886Y-58111874D01*
X149779780Y-58127416D01*
X149869517Y-58257423D01*
X149987760Y-58362176D01*
X149987762Y-58362177D01*
X150127634Y-58435589D01*
X150281014Y-58473393D01*
X150281015Y-58473393D01*
X150438985Y-58473393D01*
X150592365Y-58435589D01*
X150637877Y-58411702D01*
X150732240Y-58362176D01*
X150850483Y-58257423D01*
X150940220Y-58127416D01*
X150996237Y-57979711D01*
X151015278Y-57822893D01*
X151011519Y-57791930D01*
X150996237Y-57666074D01*
X150968483Y-57592893D01*
X157511829Y-57592893D01*
X157530869Y-57749711D01*
X157574772Y-57865471D01*
X157586887Y-57897416D01*
X157676624Y-58027423D01*
X157794867Y-58132176D01*
X157798592Y-58134131D01*
X157934741Y-58205589D01*
X158088121Y-58243393D01*
X158088122Y-58243393D01*
X158246092Y-58243393D01*
X158399472Y-58205589D01*
X158419144Y-58195264D01*
X158539347Y-58132176D01*
X158657590Y-58027423D01*
X158747327Y-57897416D01*
X158803344Y-57749711D01*
X158822385Y-57592893D01*
X158803344Y-57436075D01*
X158801333Y-57430773D01*
X158765418Y-57336073D01*
X158747327Y-57288370D01*
X158657590Y-57158363D01*
X158539347Y-57053610D01*
X158539345Y-57053609D01*
X158539344Y-57053608D01*
X158399472Y-56980196D01*
X158246093Y-56942393D01*
X158246092Y-56942393D01*
X158088122Y-56942393D01*
X158088121Y-56942393D01*
X157934741Y-56980196D01*
X157794869Y-57053608D01*
X157676623Y-57158364D01*
X157586888Y-57288368D01*
X157586887Y-57288369D01*
X157530869Y-57436074D01*
X157511829Y-57592892D01*
X157511829Y-57592893D01*
X150968483Y-57592893D01*
X150956303Y-57560778D01*
X150940220Y-57518370D01*
X150850483Y-57388363D01*
X150732240Y-57283610D01*
X150732238Y-57283609D01*
X150732237Y-57283608D01*
X150592365Y-57210196D01*
X150438986Y-57172393D01*
X150438985Y-57172393D01*
X150281015Y-57172393D01*
X150281014Y-57172393D01*
X150127634Y-57210196D01*
X149987762Y-57283608D01*
X149928543Y-57336071D01*
X149895344Y-57365483D01*
X149869516Y-57388364D01*
X149779781Y-57518368D01*
X149779780Y-57518369D01*
X149723762Y-57666074D01*
X149704722Y-57822892D01*
X149704722Y-57822893D01*
X139583731Y-57822893D01*
X139589649Y-57791872D01*
X139579403Y-57629027D01*
X139528982Y-57473846D01*
X139505011Y-57436074D01*
X139441553Y-57336081D01*
X139441547Y-57336075D01*
X139322609Y-57224384D01*
X139322606Y-57224382D01*
X139322603Y-57224380D01*
X139179626Y-57145778D01*
X139021587Y-57105200D01*
X139021584Y-57105200D01*
X138899368Y-57105200D01*
X138899358Y-57105200D01*
X138778120Y-57120517D01*
X138778118Y-57120517D01*
X138626412Y-57180582D01*
X138626403Y-57180587D01*
X138494407Y-57276487D01*
X138494405Y-57276490D01*
X138396481Y-57394861D01*
X138390399Y-57402213D01*
X138335741Y-57518368D01*
X138320925Y-57549853D01*
X138312715Y-57592892D01*
X138290351Y-57710128D01*
X138290351Y-57710130D01*
X138290351Y-57710131D01*
X131295837Y-57710131D01*
X131299722Y-56694131D01*
X133210351Y-56694131D01*
X133220597Y-56856974D01*
X133271018Y-57012154D01*
X133271020Y-57012158D01*
X133358446Y-57149918D01*
X133358447Y-57149919D01*
X133358448Y-57149920D01*
X133477391Y-57261616D01*
X133477394Y-57261618D01*
X133477396Y-57261619D01*
X133620373Y-57340221D01*
X133620375Y-57340221D01*
X133620376Y-57340222D01*
X133778416Y-57380800D01*
X133778420Y-57380800D01*
X133900630Y-57380800D01*
X133900632Y-57380800D01*
X133900637Y-57380799D01*
X133900641Y-57380799D01*
X133913784Y-57379138D01*
X134021880Y-57365483D01*
X134173589Y-57305417D01*
X134213408Y-57276487D01*
X134305592Y-57209512D01*
X134305592Y-57209510D01*
X134305594Y-57209510D01*
X134409601Y-57083787D01*
X134479074Y-56936149D01*
X134509649Y-56775872D01*
X134499403Y-56613027D01*
X134448982Y-56457846D01*
X134448979Y-56457841D01*
X134361553Y-56320081D01*
X134361552Y-56320080D01*
X134242609Y-56208384D01*
X134242606Y-56208382D01*
X134242603Y-56208380D01*
X134099626Y-56129778D01*
X133941587Y-56089200D01*
X133941584Y-56089200D01*
X133819368Y-56089200D01*
X133819358Y-56089200D01*
X133698120Y-56104517D01*
X133698118Y-56104517D01*
X133546412Y-56164582D01*
X133546403Y-56164587D01*
X133414407Y-56260487D01*
X133414405Y-56260490D01*
X133310401Y-56386210D01*
X133310399Y-56386213D01*
X133250477Y-56513554D01*
X133240925Y-56533853D01*
X133233971Y-56570309D01*
X133210351Y-56694128D01*
X133210351Y-56694130D01*
X133210351Y-56694131D01*
X131299722Y-56694131D01*
X131307107Y-54762893D01*
X131307106Y-54762892D01*
X130562892Y-54336594D01*
X130514505Y-54286191D01*
X130501048Y-54217630D01*
X130501430Y-54214050D01*
X130503743Y-54195001D01*
X132516939Y-54195001D01*
X132537342Y-54428214D01*
X132537344Y-54428225D01*
X132597932Y-54654346D01*
X132597934Y-54654350D01*
X132597935Y-54654354D01*
X132623394Y-54708951D01*
X132696874Y-54866529D01*
X132696875Y-54866531D01*
X132750918Y-54943712D01*
X132831156Y-55058303D01*
X132996697Y-55223844D01*
X133026183Y-55244490D01*
X133188468Y-55358124D01*
X133188470Y-55358125D01*
X133400646Y-55457065D01*
X133626780Y-55517657D01*
X133801579Y-55532949D01*
X133801580Y-55532950D01*
X133801581Y-55532950D01*
X133918420Y-55532950D01*
X133918420Y-55532949D01*
X134093220Y-55517657D01*
X134319354Y-55457065D01*
X134531530Y-55358125D01*
X134723303Y-55223844D01*
X134888844Y-55058303D01*
X135023125Y-54866531D01*
X135122065Y-54654354D01*
X135182657Y-54428220D01*
X135203019Y-54195476D01*
X135203061Y-54195001D01*
X135691939Y-54195001D01*
X135712342Y-54428214D01*
X135712344Y-54428225D01*
X135772932Y-54654346D01*
X135772934Y-54654350D01*
X135772935Y-54654354D01*
X135798394Y-54708951D01*
X135871874Y-54866529D01*
X135871875Y-54866531D01*
X135925918Y-54943712D01*
X136006156Y-55058303D01*
X136171697Y-55223844D01*
X136201183Y-55244490D01*
X136363468Y-55358124D01*
X136363470Y-55358125D01*
X136575646Y-55457065D01*
X136801780Y-55517657D01*
X136976579Y-55532949D01*
X136976580Y-55532950D01*
X136976581Y-55532950D01*
X137093420Y-55532950D01*
X137093420Y-55532949D01*
X137268220Y-55517657D01*
X137494354Y-55457065D01*
X137706530Y-55358125D01*
X137898303Y-55223844D01*
X138063844Y-55058303D01*
X138198125Y-54866531D01*
X138231261Y-54795471D01*
X138277433Y-54743031D01*
X138344626Y-54723879D01*
X138411507Y-54744094D01*
X138445692Y-54777434D01*
X138488159Y-54838958D01*
X138606402Y-54943711D01*
X138606403Y-54943711D01*
X138606406Y-54943714D01*
X138612576Y-54947973D01*
X138611604Y-54949380D01*
X138655178Y-54991537D01*
X138671156Y-55059555D01*
X138647825Y-55125414D01*
X138620229Y-55153073D01*
X138494405Y-55244490D01*
X138400399Y-55358125D01*
X138390399Y-55370213D01*
X138356694Y-55441841D01*
X138320925Y-55517853D01*
X138305822Y-55597025D01*
X138290351Y-55678128D01*
X138290351Y-55678130D01*
X138290351Y-55678131D01*
X138300597Y-55840974D01*
X138351018Y-55996154D01*
X138351020Y-55996158D01*
X138438446Y-56133918D01*
X138438447Y-56133919D01*
X138438448Y-56133920D01*
X138557391Y-56245616D01*
X138557394Y-56245618D01*
X138557396Y-56245619D01*
X138700373Y-56324221D01*
X138700375Y-56324221D01*
X138700376Y-56324222D01*
X138858416Y-56364800D01*
X138858420Y-56364800D01*
X138980630Y-56364800D01*
X138980632Y-56364800D01*
X138980637Y-56364799D01*
X138980641Y-56364799D01*
X138993784Y-56363138D01*
X139101880Y-56349483D01*
X139253589Y-56289417D01*
X139253596Y-56289412D01*
X139286115Y-56265786D01*
X140278936Y-56265786D01*
X140297976Y-56422604D01*
X140340167Y-56533851D01*
X140353994Y-56570309D01*
X140443731Y-56700316D01*
X140561974Y-56805069D01*
X140561976Y-56805070D01*
X140701848Y-56878482D01*
X140855228Y-56916286D01*
X140855229Y-56916286D01*
X141013199Y-56916286D01*
X141166579Y-56878482D01*
X141306454Y-56805069D01*
X141424697Y-56700316D01*
X141514434Y-56570309D01*
X141570451Y-56422604D01*
X141589492Y-56265786D01*
X141580717Y-56193512D01*
X141570451Y-56108967D01*
X141527666Y-55996154D01*
X141514434Y-55961263D01*
X141424697Y-55831256D01*
X141306454Y-55726503D01*
X141306452Y-55726502D01*
X141306451Y-55726501D01*
X141166579Y-55653089D01*
X141013200Y-55615286D01*
X141013199Y-55615286D01*
X140855229Y-55615286D01*
X140855228Y-55615286D01*
X140701848Y-55653089D01*
X140561976Y-55726501D01*
X140443730Y-55831257D01*
X140353995Y-55961261D01*
X140353994Y-55961262D01*
X140297976Y-56108967D01*
X140278936Y-56265785D01*
X140278936Y-56265786D01*
X139286115Y-56265786D01*
X139385592Y-56193512D01*
X139385592Y-56193510D01*
X139385594Y-56193510D01*
X139489601Y-56067787D01*
X139559074Y-55920149D01*
X139589649Y-55759872D01*
X139579403Y-55597027D01*
X139528982Y-55441846D01*
X139483520Y-55370210D01*
X139441553Y-55304081D01*
X139441552Y-55304080D01*
X139322609Y-55192384D01*
X139322606Y-55192382D01*
X139307267Y-55183949D01*
X139258004Y-55134401D01*
X139243349Y-55066086D01*
X139267954Y-55000692D01*
X139309381Y-54965492D01*
X139350882Y-54943711D01*
X139469125Y-54838958D01*
X139558862Y-54708951D01*
X139614879Y-54561246D01*
X139622316Y-54500000D01*
X153904722Y-54500000D01*
X153923762Y-54656818D01*
X153963991Y-54762892D01*
X153979780Y-54804523D01*
X154069517Y-54934530D01*
X154187760Y-55039283D01*
X154187762Y-55039284D01*
X154327634Y-55112696D01*
X154481014Y-55150500D01*
X154481015Y-55150500D01*
X154638985Y-55150500D01*
X154792365Y-55112696D01*
X154932240Y-55039283D01*
X155050483Y-54934530D01*
X155140220Y-54804523D01*
X155196237Y-54656818D01*
X155215278Y-54500000D01*
X157704722Y-54500000D01*
X157723762Y-54656818D01*
X157763991Y-54762892D01*
X157779780Y-54804523D01*
X157869517Y-54934530D01*
X157987760Y-55039283D01*
X157987762Y-55039284D01*
X158127634Y-55112696D01*
X158281014Y-55150500D01*
X158281015Y-55150500D01*
X158438985Y-55150500D01*
X158592365Y-55112696D01*
X158732240Y-55039283D01*
X158850483Y-54934530D01*
X158940220Y-54804523D01*
X158996237Y-54656818D01*
X159015278Y-54500000D01*
X159006563Y-54428220D01*
X158996237Y-54343181D01*
X158974623Y-54286191D01*
X158940220Y-54195477D01*
X158850483Y-54065470D01*
X158732240Y-53960717D01*
X158732238Y-53960716D01*
X158732237Y-53960715D01*
X158616557Y-53900000D01*
X161304722Y-53900000D01*
X161323762Y-54056818D01*
X161376349Y-54195476D01*
X161379780Y-54204523D01*
X161469517Y-54334530D01*
X161587760Y-54439283D01*
X161587762Y-54439284D01*
X161727634Y-54512696D01*
X161881014Y-54550500D01*
X161881015Y-54550500D01*
X162038985Y-54550500D01*
X162192365Y-54512696D01*
X162216557Y-54499999D01*
X162332240Y-54439283D01*
X162450483Y-54334530D01*
X162540220Y-54204523D01*
X162596237Y-54056818D01*
X162615278Y-53900000D01*
X162613737Y-53887304D01*
X162596237Y-53743181D01*
X162565663Y-53662564D01*
X162540220Y-53595477D01*
X162450483Y-53465470D01*
X162332240Y-53360717D01*
X162332238Y-53360716D01*
X162332237Y-53360715D01*
X162192365Y-53287303D01*
X162038986Y-53249500D01*
X162038985Y-53249500D01*
X161881015Y-53249500D01*
X161881014Y-53249500D01*
X161727634Y-53287303D01*
X161587762Y-53360715D01*
X161469516Y-53465471D01*
X161379781Y-53595475D01*
X161379780Y-53595476D01*
X161323762Y-53743181D01*
X161304722Y-53899999D01*
X161304722Y-53900000D01*
X158616557Y-53900000D01*
X158592365Y-53887303D01*
X158438986Y-53849500D01*
X158438985Y-53849500D01*
X158281015Y-53849500D01*
X158281014Y-53849500D01*
X158127634Y-53887303D01*
X157987762Y-53960715D01*
X157869516Y-54065471D01*
X157779781Y-54195475D01*
X157779780Y-54195476D01*
X157723762Y-54343181D01*
X157704722Y-54499999D01*
X157704722Y-54500000D01*
X155215278Y-54500000D01*
X155206563Y-54428220D01*
X155196237Y-54343181D01*
X155174623Y-54286191D01*
X155140220Y-54195477D01*
X155050483Y-54065470D01*
X154932240Y-53960717D01*
X154932238Y-53960716D01*
X154932237Y-53960715D01*
X154792365Y-53887303D01*
X154638986Y-53849500D01*
X154638985Y-53849500D01*
X154481015Y-53849500D01*
X154481014Y-53849500D01*
X154327634Y-53887303D01*
X154187762Y-53960715D01*
X154069516Y-54065471D01*
X153979781Y-54195475D01*
X153979780Y-54195476D01*
X153923762Y-54343181D01*
X153904722Y-54499999D01*
X153904722Y-54500000D01*
X139622316Y-54500000D01*
X139633920Y-54404428D01*
X139632845Y-54395570D01*
X139614879Y-54247609D01*
X139582166Y-54161354D01*
X139558862Y-54099905D01*
X139469125Y-53969898D01*
X139350882Y-53865145D01*
X139350880Y-53865144D01*
X139350879Y-53865143D01*
X139211007Y-53791731D01*
X139057628Y-53753928D01*
X139057627Y-53753928D01*
X138899657Y-53753928D01*
X138899656Y-53753928D01*
X138746276Y-53791731D01*
X138606404Y-53865142D01*
X138534550Y-53928799D01*
X138471316Y-53958519D01*
X138402053Y-53949335D01*
X138348750Y-53904162D01*
X138332549Y-53868075D01*
X138297067Y-53735653D01*
X138297066Y-53735652D01*
X138297065Y-53735646D01*
X138198125Y-53523470D01*
X138198124Y-53523468D01*
X138101065Y-53384854D01*
X138063844Y-53331697D01*
X137898303Y-53166156D01*
X137762718Y-53071218D01*
X137706531Y-53031875D01*
X137706529Y-53031874D01*
X137600442Y-52982405D01*
X137494354Y-52932935D01*
X137494350Y-52932934D01*
X137494346Y-52932932D01*
X137371440Y-52900000D01*
X149704722Y-52900000D01*
X149723762Y-53056818D01*
X149779780Y-53204523D01*
X149869517Y-53334530D01*
X149987760Y-53439283D01*
X149987762Y-53439284D01*
X150127634Y-53512696D01*
X150281014Y-53550500D01*
X150281015Y-53550500D01*
X150438985Y-53550500D01*
X150592365Y-53512696D01*
X150732240Y-53439283D01*
X150850483Y-53334530D01*
X150923990Y-53228036D01*
X165033820Y-53228036D01*
X165052860Y-53384854D01*
X165091875Y-53487726D01*
X165108878Y-53532559D01*
X165198615Y-53662566D01*
X165316858Y-53767319D01*
X165316860Y-53767320D01*
X165456732Y-53840732D01*
X165610112Y-53878536D01*
X165610113Y-53878536D01*
X165768084Y-53878536D01*
X165775529Y-53877632D01*
X165775883Y-53880553D01*
X165832115Y-53883023D01*
X165889180Y-53923338D01*
X165915092Y-53985406D01*
X165923763Y-54056819D01*
X165963408Y-54161354D01*
X165979780Y-54204523D01*
X166069517Y-54334530D01*
X166187760Y-54439283D01*
X166187762Y-54439284D01*
X166327634Y-54512696D01*
X166481014Y-54550500D01*
X166481015Y-54550500D01*
X166638985Y-54550500D01*
X166792365Y-54512696D01*
X166816557Y-54499999D01*
X166932240Y-54439283D01*
X167050483Y-54334530D01*
X167140220Y-54204523D01*
X167196237Y-54056818D01*
X167215278Y-53900000D01*
X167213737Y-53887304D01*
X167196237Y-53743181D01*
X167165663Y-53662564D01*
X167140220Y-53595477D01*
X167050483Y-53465470D01*
X166932240Y-53360717D01*
X166932238Y-53360716D01*
X166932237Y-53360715D01*
X166792365Y-53287303D01*
X166638986Y-53249500D01*
X166638985Y-53249500D01*
X166481015Y-53249500D01*
X166481014Y-53249500D01*
X166473570Y-53250404D01*
X166473216Y-53247488D01*
X166416946Y-53245001D01*
X166359893Y-53204668D01*
X166334005Y-53142630D01*
X166325335Y-53071218D01*
X166269318Y-52923513D01*
X166253088Y-52900000D01*
X167704722Y-52900000D01*
X167723762Y-53056818D01*
X167779780Y-53204523D01*
X167869517Y-53334530D01*
X167987760Y-53439283D01*
X167987762Y-53439284D01*
X168127634Y-53512696D01*
X168281014Y-53550500D01*
X168281015Y-53550500D01*
X168438985Y-53550500D01*
X168592365Y-53512696D01*
X168732240Y-53439283D01*
X168850483Y-53334530D01*
X168940220Y-53204523D01*
X168996237Y-53056818D01*
X169015278Y-52900000D01*
X169002348Y-52793506D01*
X168996237Y-52743181D01*
X168947753Y-52615340D01*
X168940220Y-52595477D01*
X168850483Y-52465470D01*
X168732240Y-52360717D01*
X168732238Y-52360716D01*
X168732237Y-52360715D01*
X168592365Y-52287303D01*
X168438986Y-52249500D01*
X168438985Y-52249500D01*
X168281015Y-52249500D01*
X168281014Y-52249500D01*
X168127634Y-52287303D01*
X167987762Y-52360715D01*
X167869516Y-52465471D01*
X167779781Y-52595475D01*
X167779780Y-52595476D01*
X167723762Y-52743181D01*
X167704722Y-52899999D01*
X167704722Y-52900000D01*
X166253088Y-52900000D01*
X166179581Y-52793506D01*
X166061338Y-52688753D01*
X166061336Y-52688752D01*
X166061335Y-52688751D01*
X165921463Y-52615339D01*
X165768084Y-52577536D01*
X165768083Y-52577536D01*
X165610113Y-52577536D01*
X165610112Y-52577536D01*
X165456732Y-52615339D01*
X165316860Y-52688751D01*
X165198614Y-52793507D01*
X165108879Y-52923511D01*
X165108878Y-52923512D01*
X165052860Y-53071217D01*
X165033820Y-53228035D01*
X165033820Y-53228036D01*
X150923990Y-53228036D01*
X150940220Y-53204523D01*
X150996237Y-53056818D01*
X151015278Y-52900000D01*
X151002348Y-52793506D01*
X150996237Y-52743181D01*
X150947753Y-52615340D01*
X150940220Y-52595477D01*
X150850483Y-52465470D01*
X150732240Y-52360717D01*
X150732238Y-52360716D01*
X150732237Y-52360715D01*
X150592365Y-52287303D01*
X150438986Y-52249500D01*
X150438985Y-52249500D01*
X150281015Y-52249500D01*
X150281014Y-52249500D01*
X150127634Y-52287303D01*
X149987762Y-52360715D01*
X149869516Y-52465471D01*
X149779781Y-52595475D01*
X149779780Y-52595476D01*
X149723762Y-52743181D01*
X149704722Y-52899999D01*
X149704722Y-52900000D01*
X137371440Y-52900000D01*
X137268225Y-52872344D01*
X137268221Y-52872343D01*
X137268220Y-52872343D01*
X137268219Y-52872342D01*
X137268214Y-52872342D01*
X137093422Y-52857050D01*
X137093419Y-52857050D01*
X136976581Y-52857050D01*
X136976577Y-52857050D01*
X136801785Y-52872342D01*
X136801774Y-52872344D01*
X136575653Y-52932932D01*
X136575644Y-52932936D01*
X136363470Y-53031874D01*
X136363468Y-53031875D01*
X136171702Y-53166152D01*
X136171695Y-53166157D01*
X136006156Y-53331696D01*
X135871873Y-53523471D01*
X135772936Y-53735644D01*
X135772932Y-53735653D01*
X135712344Y-53961774D01*
X135712342Y-53961785D01*
X135691939Y-54194998D01*
X135691939Y-54195001D01*
X135203061Y-54195001D01*
X135203061Y-54194998D01*
X135194750Y-54100000D01*
X135182657Y-53961780D01*
X135122065Y-53735646D01*
X135023125Y-53523470D01*
X135023124Y-53523468D01*
X134926065Y-53384854D01*
X134888844Y-53331697D01*
X134723303Y-53166156D01*
X134587718Y-53071218D01*
X134531531Y-53031875D01*
X134531529Y-53031874D01*
X134425442Y-52982405D01*
X134319354Y-52932935D01*
X134319350Y-52932934D01*
X134319346Y-52932932D01*
X134093225Y-52872344D01*
X134093221Y-52872343D01*
X134093220Y-52872343D01*
X134093219Y-52872342D01*
X134093214Y-52872342D01*
X133918422Y-52857050D01*
X133918419Y-52857050D01*
X133801581Y-52857050D01*
X133801577Y-52857050D01*
X133626785Y-52872342D01*
X133626774Y-52872344D01*
X133400653Y-52932932D01*
X133400644Y-52932936D01*
X133188470Y-53031874D01*
X133188468Y-53031875D01*
X132996702Y-53166152D01*
X132996695Y-53166157D01*
X132831156Y-53331696D01*
X132696873Y-53523471D01*
X132597936Y-53735644D01*
X132597932Y-53735653D01*
X132537344Y-53961774D01*
X132537342Y-53961785D01*
X132516939Y-54194998D01*
X132516939Y-54195001D01*
X130503743Y-54195001D01*
X130515278Y-54100000D01*
X130515278Y-54099999D01*
X130496237Y-53943181D01*
X130467753Y-53868075D01*
X130440220Y-53795477D01*
X130350483Y-53665470D01*
X130350482Y-53665468D01*
X130320505Y-53638912D01*
X130283378Y-53579723D01*
X130278731Y-53545779D01*
X130283725Y-51617893D01*
X158111829Y-51617893D01*
X158130869Y-51774711D01*
X158186887Y-51922416D01*
X158276624Y-52052423D01*
X158394867Y-52157176D01*
X158394869Y-52157177D01*
X158534741Y-52230589D01*
X158688121Y-52268393D01*
X158688122Y-52268393D01*
X158846092Y-52268393D01*
X158999472Y-52230589D01*
X159139347Y-52157176D01*
X159257590Y-52052423D01*
X159347327Y-51922416D01*
X159403344Y-51774711D01*
X159422385Y-51617893D01*
X159403344Y-51461075D01*
X159347327Y-51313370D01*
X159257590Y-51183363D01*
X159139347Y-51078610D01*
X159139345Y-51078609D01*
X159139344Y-51078608D01*
X158999472Y-51005196D01*
X158846093Y-50967393D01*
X158846092Y-50967393D01*
X158688122Y-50967393D01*
X158688121Y-50967393D01*
X158534741Y-51005196D01*
X158394869Y-51078608D01*
X158276623Y-51183364D01*
X158186888Y-51313368D01*
X158186887Y-51313369D01*
X158130869Y-51461074D01*
X158111829Y-51617892D01*
X158111829Y-51617893D01*
X130283725Y-51617893D01*
X130286811Y-50426860D01*
X130306670Y-50359875D01*
X130359592Y-50314257D01*
X130411126Y-50303184D01*
X161131585Y-50381652D01*
G37*
%TD.AperFunction*%
%TD*%
M02*
