%TF.GenerationSoftware,KiCad,Pcbnew,7.0.10*%
%TF.CreationDate,2024-02-24T19:37:40+01:00*%
%TF.ProjectId,STM32,53544d33-322e-46b6-9963-61645f706362,Rev01*%
%TF.SameCoordinates,Original*%
%TF.FileFunction,Copper,L4,Bot*%
%TF.FilePolarity,Positive*%
%FSLAX46Y46*%
G04 Gerber Fmt 4.6, Leading zero omitted, Abs format (unit mm)*
G04 Created by KiCad (PCBNEW 7.0.10) date 2024-02-24 19:37:40*
%MOMM*%
%LPD*%
G01*
G04 APERTURE LIST*
G04 Aperture macros list*
%AMRoundRect*
0 Rectangle with rounded corners*
0 $1 Rounding radius*
0 $2 $3 $4 $5 $6 $7 $8 $9 X,Y pos of 4 corners*
0 Add a 4 corners polygon primitive as box body*
4,1,4,$2,$3,$4,$5,$6,$7,$8,$9,$2,$3,0*
0 Add four circle primitives for the rounded corners*
1,1,$1+$1,$2,$3*
1,1,$1+$1,$4,$5*
1,1,$1+$1,$6,$7*
1,1,$1+$1,$8,$9*
0 Add four rect primitives between the rounded corners*
20,1,$1+$1,$2,$3,$4,$5,0*
20,1,$1+$1,$4,$5,$6,$7,0*
20,1,$1+$1,$6,$7,$8,$9,0*
20,1,$1+$1,$8,$9,$2,$3,0*%
G04 Aperture macros list end*
%TA.AperFunction,ComponentPad*%
%ADD10C,4.400000*%
%TD*%
%TA.AperFunction,ComponentPad*%
%ADD11O,1.800000X1.000000*%
%TD*%
%TA.AperFunction,ComponentPad*%
%ADD12O,2.100000X1.000000*%
%TD*%
%TA.AperFunction,ComponentPad*%
%ADD13RoundRect,0.200000X-0.200000X-0.450000X0.200000X-0.450000X0.200000X0.450000X-0.200000X0.450000X0*%
%TD*%
%TA.AperFunction,ComponentPad*%
%ADD14O,0.800000X1.300000*%
%TD*%
%TA.AperFunction,ViaPad*%
%ADD15C,0.900000*%
%TD*%
%TA.AperFunction,ViaPad*%
%ADD16C,0.650000*%
%TD*%
%TA.AperFunction,ViaPad*%
%ADD17C,1.000000*%
%TD*%
%TA.AperFunction,Conductor*%
%ADD18C,0.150000*%
%TD*%
%TA.AperFunction,Conductor*%
%ADD19C,0.200000*%
%TD*%
G04 APERTURE END LIST*
D10*
%TO.P,H4,1,1*%
%TO.N,GND*%
X122500000Y-50500000D03*
%TD*%
%TO.P,H3,1,1*%
%TO.N,GND*%
X122500000Y-67000000D03*
%TD*%
%TO.P,H2,1,1*%
%TO.N,GND*%
X174500000Y-67000000D03*
%TD*%
%TO.P,H1,1,1*%
%TO.N,GND*%
X174500000Y-50500000D03*
%TD*%
D11*
%TO.P,J3,S1,SHIELD*%
%TO.N,GND*%
X121692107Y-63212893D03*
D12*
X125872107Y-63212893D03*
D11*
X121692107Y-54572893D03*
D12*
X125872107Y-54572893D03*
%TD*%
D13*
%TO.P,J1,1,Pin_1*%
%TO.N,+3V3*%
X145392107Y-61992893D03*
D14*
%TO.P,J1,2,Pin_2*%
%TO.N,/UART_TXC*%
X146642107Y-61992893D03*
%TO.P,J1,3,Pin_3*%
%TO.N,/UART_RXC*%
X147892107Y-61992893D03*
%TO.P,J1,4,Pin_4*%
%TO.N,GND*%
X149142107Y-61992893D03*
%TD*%
D15*
%TO.N,+3V3*%
X158167762Y-59200025D03*
D16*
%TO.N,GND*%
X127746315Y-60713685D03*
D15*
X163467107Y-59492893D03*
X161967107Y-59492893D03*
X163467107Y-57492893D03*
X161967107Y-57492893D03*
X164467107Y-60492893D03*
X164467107Y-58492893D03*
X164467107Y-56492893D03*
X160967107Y-58492893D03*
X160967107Y-60492893D03*
X160967107Y-56492893D03*
X158767107Y-51617893D03*
%TO.N,+3V3*%
X146767107Y-55192893D03*
X159767107Y-54092893D03*
%TO.N,GND*%
X140934214Y-56265786D03*
X150360000Y-57822893D03*
D17*
%TO.N,+3V3*%
X132360000Y-57700000D03*
D15*
X146760000Y-57900000D03*
D17*
X167514007Y-55454007D03*
D15*
X146767107Y-64192893D03*
D17*
X144867107Y-64092893D03*
X162560000Y-64769670D03*
D15*
X164110000Y-54000000D03*
X131560000Y-63900000D03*
X143787107Y-54792893D03*
X155360000Y-57700000D03*
D17*
X131067107Y-52092893D03*
D15*
X152560000Y-57700000D03*
X143787107Y-56392893D03*
%TO.N,GND*%
X176960000Y-55900000D03*
X175760000Y-55900000D03*
X176960000Y-62100000D03*
X123960000Y-62500000D03*
X126837107Y-66112893D03*
X150360000Y-52900000D03*
X160385000Y-65300000D03*
X171760000Y-61100000D03*
X137760000Y-63500000D03*
X173160000Y-59300000D03*
X168560000Y-63100000D03*
X169100000Y-57126250D03*
X129860000Y-54100000D03*
X175760000Y-62100000D03*
X161900000Y-50600000D03*
X123560000Y-53700000D03*
D17*
%TO.N,+5V*%
X129760000Y-64900000D03*
D15*
X129067107Y-56092893D03*
X128767107Y-51992893D03*
D17*
X123467107Y-57592893D03*
D15*
%TO.N,/SWD_NRST*%
X135360000Y-61100000D03*
X141147107Y-60702893D03*
%TO.N,/SMPS_FB*%
X167800000Y-58300000D03*
X168360000Y-52900000D03*
%TO.N,/RF*%
X167660000Y-61663952D03*
X163560000Y-63500000D03*
%TO.N,/LSE_IN*%
X154560000Y-54500000D03*
X158360000Y-54500000D03*
%TO.N,/BOOT*%
X142567107Y-65092893D03*
X158167107Y-57592893D03*
%TO.N,Net-(J4-SWO)*%
X138978642Y-54404428D03*
X161960000Y-53900000D03*
%TO.N,/UART_TX*%
X158351117Y-60563698D03*
X158160000Y-62500000D03*
%TO.N,/USB_D+*%
X128767107Y-63092893D03*
X165689098Y-53228036D03*
%TO.N,/USB_D-*%
X133160000Y-61700000D03*
X166560000Y-53900000D03*
%TO.N,Net-(X1-Pad2)*%
X167067107Y-66700000D03*
X164390331Y-65669669D03*
%TD*%
D18*
%TO.N,/RF*%
X166500000Y-63500000D02*
X163560000Y-63500000D01*
X167600000Y-61723952D02*
X167600000Y-62400000D01*
X167660000Y-61663952D02*
X167600000Y-61723952D01*
X167600000Y-62400000D02*
X166500000Y-63500000D01*
D19*
%TO.N,/SMPS_FB*%
X168360000Y-56540000D02*
X168360000Y-52900000D01*
X167800000Y-57100000D02*
X168360000Y-56540000D01*
X167800000Y-58300000D02*
X167800000Y-57100000D01*
%TO.N,/BOOT*%
X157707107Y-57592893D02*
X158167107Y-57592893D01*
X150207107Y-65092893D02*
X157707107Y-57592893D01*
X142567107Y-65092893D02*
X150207107Y-65092893D01*
D18*
%TO.N,/USB_D+*%
X129160000Y-62700000D02*
X128767107Y-63092893D01*
X131760000Y-62700000D02*
X129160000Y-62700000D01*
X132267107Y-62192893D02*
X131760000Y-62700000D01*
X132267107Y-61192893D02*
X132267107Y-62192893D01*
X132485000Y-60975000D02*
X132267107Y-61192893D01*
X133460305Y-60975000D02*
X132485000Y-60975000D01*
X144874214Y-60592893D02*
X143567107Y-61900000D01*
X159035305Y-55050000D02*
X153492412Y-60592893D01*
X164789837Y-55050000D02*
X159035305Y-55050000D01*
X165689098Y-54150739D02*
X164789837Y-55050000D01*
X153492412Y-60592893D02*
X144874214Y-60592893D01*
X165689098Y-53228036D02*
X165689098Y-54150739D01*
X143567107Y-61900000D02*
X134385305Y-61900000D01*
X134385305Y-61900000D02*
X133460305Y-60975000D01*
%TO.N,/USB_D-*%
X165100000Y-55400000D02*
X166560000Y-53940000D01*
X153599214Y-61067893D02*
X159267107Y-55400000D01*
X166560000Y-53940000D02*
X166560000Y-53900000D01*
X144949214Y-61067893D02*
X153599214Y-61067893D01*
X143767107Y-62250000D02*
X144949214Y-61067893D01*
X133710000Y-62250000D02*
X143767107Y-62250000D01*
X159267107Y-55400000D02*
X165100000Y-55400000D01*
X133160000Y-61700000D02*
X133710000Y-62250000D01*
D19*
%TO.N,Net-(X1-Pad2)*%
X167067107Y-66700000D02*
X165420662Y-66700000D01*
X165420662Y-66700000D02*
X164390331Y-65669669D01*
D18*
%TO.N,/SWD_NRST*%
X139422652Y-61100000D02*
X135360000Y-61100000D01*
X139819759Y-60702893D02*
X139422652Y-61100000D01*
X141147107Y-60702893D02*
X139819759Y-60702893D01*
%TO.N,/LSE_IN*%
X154652893Y-54592893D02*
X154560000Y-54500000D01*
X158267107Y-54592893D02*
X154652893Y-54592893D01*
X158360000Y-54500000D02*
X158267107Y-54592893D01*
%TO.N,/UART_TX*%
X158160000Y-60754815D02*
X158351117Y-60563698D01*
X158160000Y-62500000D02*
X158160000Y-60754815D01*
%TO.N,Net-(J4-SWO)*%
X152422437Y-53367893D02*
X161427893Y-53367893D01*
X151715330Y-54075000D02*
X152422437Y-53367893D01*
X145977588Y-53292893D02*
X146759695Y-54075000D01*
X161427893Y-53367893D02*
X161960000Y-53900000D01*
X138978642Y-54404428D02*
X140090177Y-53292893D01*
X140090177Y-53292893D02*
X145977588Y-53292893D01*
X146759695Y-54075000D02*
X151715330Y-54075000D01*
%TD*%
M02*
